<?xml version="1.0" encoding="UTF-8"?>
<!DOCTYPE svg PUBLIC "-//W3C//DTD SVG 1.1//EN"
    "http://www.w3.org/Graphics/SVG/1.1/DTD/svg11.dtd">
<svg xmlns="http://www.w3.org/2000/svg" height="150.0000" stroke-opacity="1" viewBox="0 0 407 150" font-size="1" width="407.1429" xmlns:xlink="http://www.w3.org/1999/xlink" stroke="rgb(0,0,0)" version="1.1">
  <defs>
  </defs>
  <defs>
  </defs>
  <g stroke-linejoin="miter" stroke-opacity="1.0" fill-opacity="0.0" stroke="rgb(0,0,0)" stroke-width="0.9885053652574968" fill="rgb(0,0,0)" stroke-linecap="butt" stroke-miterlimit="10.0">
    <path d="M 320.4545,16.5584 l 19.4805,38.9610 "/>
  </g>
  <defs>
  </defs>
  <g stroke-linejoin="miter" stroke-opacity="1.0" fill-opacity="0.0" stroke="rgb(0,0,0)" stroke-width="0.9885053652574968" fill="rgb(0,0,0)" stroke-linecap="butt" stroke-miterlimit="10.0">
    <path d="M 320.4545,16.5584 l -19.4805,38.9610 "/>
  </g>
  <defs>
  </defs>
  <g stroke-linejoin="miter" stroke-opacity="1.0" fill-opacity="0.0" stroke="rgb(0,0,0)" stroke-width="0.9885053652574968" fill="rgb(0,0,0)" stroke-linecap="butt" stroke-miterlimit="10.0">
    <path d="M 339.9351,55.5195 l 19.4805,38.9610 "/>
  </g>
  <defs>
  </defs>
  <g stroke-linejoin="miter" stroke-opacity="1.0" fill-opacity="0.0" stroke="rgb(0,0,0)" stroke-width="0.9885053652574968" fill="rgb(0,0,0)" stroke-linecap="butt" stroke-miterlimit="10.0">
    <path d="M 339.9351,55.5195 l -19.4805,38.9610 "/>
  </g>
  <defs>
  </defs>
  <g stroke-linejoin="miter" stroke-opacity="1.0" fill-opacity="0.0" stroke="rgb(0,0,0)" stroke-width="0.9885053652574968" fill="rgb(0,0,0)" stroke-linecap="butt" stroke-miterlimit="10.0">
    <path d="M 359.4156,94.4805 l 19.4805,38.9610 "/>
  </g>
  <defs>
  </defs>
  <g stroke-linejoin="miter" stroke-opacity="1.0" fill-opacity="0.0" stroke="rgb(0,0,0)" stroke-width="0.9885053652574968" fill="rgb(0,0,0)" stroke-linecap="butt" stroke-miterlimit="10.0">
    <path d="M 359.4156,94.4805 l -19.4805,38.9610 "/>
  </g>
  <defs>
  </defs>
  <g stroke-linejoin="miter" stroke-opacity="1.0" fill-opacity="1.0" stroke="rgb(0,0,0)" stroke-width="0.0" fill="rgb(255,255,255)" stroke-linecap="butt" stroke-miterlimit="10.0">
    <path d="M 388.6364,133.4416 c 0.0000,-5.3794 -4.3609,-9.7403 -9.7403 -9.7403c -5.3794,-0.0000 -9.7403,4.3609 -9.7403 9.7403c -0.0000,5.3794 4.3609,9.7403 9.7403 9.7403c 5.3794,0.0000 9.7403,-4.3609 9.7403 -9.7403Z"/>
  </g>
  <defs>
  </defs>
  <g stroke-linejoin="miter" stroke-opacity="1.0" fill-opacity="0.0" stroke="rgb(0,0,0)" stroke-width="0.9885053652574968" fill="rgb(0,0,0)" stroke-dashoffset="0.0" stroke-linecap="butt" stroke-miterlimit="10.0" stroke-dasharray="2.471263413143742,2.471263413143742">
    <path d="M 388.6364,133.4416 c 0.0000,5.3794 -4.3609,9.7403 -9.7403 9.7403c -5.3794,0.0000 -9.7403,-4.3609 -9.7403 -9.7403"/>
  </g>
  <defs>
  </defs>
  <g stroke-linejoin="miter" stroke-opacity="1.0" fill-opacity="0.0" stroke="rgb(255,0,0)" stroke-width="0.9885053652574968" fill="rgb(0,0,0)" stroke-dashoffset="0.0" stroke-linecap="butt" stroke-miterlimit="10.0" stroke-dasharray="2.471263413143742,2.471263413143742">
    <path d="M 388.6364,133.4416 c 0.0000,-5.3794 -4.3609,-9.7403 -9.7403 -9.7403c -5.3794,-0.0000 -9.7403,4.3609 -9.7403 9.7403"/>
  </g>
  <defs>
  </defs>
  <g stroke-linejoin="miter" stroke-opacity="1.0" fill-opacity="1.0" font-size="9.74025974025974px" stroke="rgb(0,0,0)" stroke-width="0.9885053652574968" fill="rgb(0,0,0)" stroke-linecap="butt" stroke-miterlimit="10.0">
    <text dominant-baseline="middle" transform="matrix(1.0000,0.0000,0.0000,1.0000,378.8961,133.4416)" stroke="none" text-anchor="middle">13
    </text>
  </g>
  <defs>
  </defs>
  <g stroke-linejoin="miter" stroke-opacity="1.0" fill-opacity="1.0" stroke="rgb(0,0,0)" stroke-width="0.0" fill="rgb(255,255,255)" stroke-linecap="butt" stroke-miterlimit="10.0">
    <path d="M 349.6753,133.4416 c 0.0000,-5.3794 -4.3609,-9.7403 -9.7403 -9.7403c -5.3794,-0.0000 -9.7403,4.3609 -9.7403 9.7403c -0.0000,5.3794 4.3609,9.7403 9.7403 9.7403c 5.3794,0.0000 9.7403,-4.3609 9.7403 -9.7403Z"/>
  </g>
  <defs>
  </defs>
  <g stroke-linejoin="miter" stroke-opacity="1.0" fill-opacity="0.0" stroke="rgb(0,0,0)" stroke-width="0.9885053652574968" fill="rgb(0,0,0)" stroke-dashoffset="0.0" stroke-linecap="butt" stroke-miterlimit="10.0" stroke-dasharray="2.471263413143742,2.471263413143742">
    <path d="M 349.6753,133.4416 c 0.0000,5.3794 -4.3609,9.7403 -9.7403 9.7403c -5.3794,0.0000 -9.7403,-4.3609 -9.7403 -9.7403"/>
  </g>
  <defs>
  </defs>
  <g stroke-linejoin="miter" stroke-opacity="1.0" fill-opacity="0.0" stroke="rgb(255,0,0)" stroke-width="0.9885053652574968" fill="rgb(0,0,0)" stroke-dashoffset="0.0" stroke-linecap="butt" stroke-miterlimit="10.0" stroke-dasharray="2.471263413143742,2.471263413143742">
    <path d="M 349.6753,133.4416 c 0.0000,-5.3794 -4.3609,-9.7403 -9.7403 -9.7403c -5.3794,-0.0000 -9.7403,4.3609 -9.7403 9.7403"/>
  </g>
  <defs>
  </defs>
  <g stroke-linejoin="miter" stroke-opacity="1.0" fill-opacity="1.0" font-size="9.74025974025974px" stroke="rgb(0,0,0)" stroke-width="0.9885053652574968" fill="rgb(0,0,0)" stroke-linecap="butt" stroke-miterlimit="10.0">
    <text dominant-baseline="middle" transform="matrix(1.0000,0.0000,0.0000,1.0000,339.9351,133.4416)" stroke="none" text-anchor="middle">9
    </text>
  </g>
  <defs>
  </defs>
  <g stroke-linejoin="miter" stroke-opacity="1.0" fill-opacity="1.0" stroke="rgb(0,0,0)" stroke-width="0.9885053652574968" fill="rgb(0,0,0)" stroke-linecap="butt" stroke-miterlimit="10.0">
    <path d="M 369.1558,94.4805 c 0.0000,-5.3794 -4.3609,-9.7403 -9.7403 -9.7403c -5.3794,-0.0000 -9.7403,4.3609 -9.7403 9.7403c -0.0000,5.3794 4.3609,9.7403 9.7403 9.7403c 5.3794,0.0000 9.7403,-4.3609 9.7403 -9.7403Z"/>
  </g>
  <defs>
  </defs>
  <g stroke-linejoin="miter" stroke-opacity="1.0" fill-opacity="1.0" font-size="9.74025974025974px" stroke="rgb(0,0,0)" stroke-width="0.9885053652574968" fill="rgb(255,255,255)" stroke-linecap="butt" stroke-miterlimit="10.0">
    <text dominant-baseline="middle" transform="matrix(1.0000,0.0000,0.0000,1.0000,359.4156,94.4805)" stroke="none" text-anchor="middle">11
    </text>
  </g>
  <defs>
  </defs>
  <g stroke-linejoin="miter" stroke-opacity="1.0" fill-opacity="1.0" stroke="rgb(0,0,0)" stroke-width="1.8534475598578064" fill="rgb(255,255,255)" stroke-linecap="butt" stroke-miterlimit="10.0">
    <path d="M 330.1948,94.4805 c 0.0000,-5.3794 -4.3609,-9.7403 -9.7403 -9.7403c -5.3794,-0.0000 -9.7403,4.3609 -9.7403 9.7403c -0.0000,5.3794 4.3609,9.7403 9.7403 9.7403c 5.3794,0.0000 9.7403,-4.3609 9.7403 -9.7403Z"/>
  </g>
  <defs>
  </defs>
  <g stroke-linejoin="miter" stroke-opacity="1.0" fill-opacity="1.0" font-size="9.74025974025974px" stroke="rgb(0,0,0)" stroke-width="0.9885053652574968" fill="rgb(0,0,0)" stroke-linecap="butt" stroke-miterlimit="10.0">
    <text dominant-baseline="middle" transform="matrix(1.0000,0.0000,0.0000,1.0000,320.4545,94.4805)" stroke="none" text-anchor="middle">5
    </text>
  </g>
  <defs>
  </defs>
  <g stroke-linejoin="miter" stroke-opacity="1.0" fill-opacity="1.0" stroke="rgb(255,0,0)" stroke-width="1.8534475598578064" fill="rgb(255,255,255)" stroke-linecap="butt" stroke-miterlimit="10.0">
    <path d="M 349.6753,55.5195 c 0.0000,-5.3794 -4.3609,-9.7403 -9.7403 -9.7403c -5.3794,-0.0000 -9.7403,4.3609 -9.7403 9.7403c -0.0000,5.3794 4.3609,9.7403 9.7403 9.7403c 5.3794,0.0000 9.7403,-4.3609 9.7403 -9.7403Z"/>
  </g>
  <defs>
  </defs>
  <g stroke-linejoin="miter" stroke-opacity="1.0" fill-opacity="1.0" font-size="9.74025974025974px" stroke="rgb(0,0,0)" stroke-width="0.9885053652574968" fill="rgb(0,0,0)" stroke-linecap="butt" stroke-miterlimit="10.0">
    <text dominant-baseline="middle" transform="matrix(1.0000,0.0000,0.0000,1.0000,339.9351,55.5195)" stroke="none" text-anchor="middle">7
    </text>
  </g>
  <defs>
  </defs>
  <g stroke-linejoin="miter" stroke-opacity="1.0" fill-opacity="1.0" stroke="rgb(0,0,0)" stroke-width="1.8534475598578064" fill="rgb(255,255,255)" stroke-linecap="butt" stroke-miterlimit="10.0">
    <path d="M 310.7143,55.5195 c 0.0000,-5.3794 -4.3609,-9.7403 -9.7403 -9.7403c -5.3794,-0.0000 -9.7403,4.3609 -9.7403 9.7403c -0.0000,5.3794 4.3609,9.7403 9.7403 9.7403c 5.3794,0.0000 9.7403,-4.3609 9.7403 -9.7403Z"/>
  </g>
  <defs>
  </defs>
  <g stroke-linejoin="miter" stroke-opacity="1.0" fill-opacity="1.0" font-size="9.74025974025974px" stroke="rgb(0,0,0)" stroke-width="0.9885053652574968" fill="rgb(0,0,0)" stroke-linecap="butt" stroke-miterlimit="10.0">
    <text dominant-baseline="middle" transform="matrix(1.0000,0.0000,0.0000,1.0000,300.9740,55.5195)" stroke="none" text-anchor="middle">1
    </text>
  </g>
  <defs>
  </defs>
  <g stroke-linejoin="miter" stroke-opacity="1.0" fill-opacity="1.0" stroke="rgb(0,0,0)" stroke-width="1.8534475598578064" fill="rgb(255,255,255)" stroke-linecap="butt" stroke-miterlimit="10.0">
    <path d="M 330.1948,16.5584 c 0.0000,-5.3794 -4.3609,-9.7403 -9.7403 -9.7403c -5.3794,-0.0000 -9.7403,4.3609 -9.7403 9.7403c -0.0000,5.3794 4.3609,9.7403 9.7403 9.7403c 5.3794,0.0000 9.7403,-4.3609 9.7403 -9.7403Z"/>
  </g>
  <defs>
  </defs>
  <g stroke-linejoin="miter" stroke-opacity="1.0" fill-opacity="1.0" font-size="9.74025974025974px" stroke="rgb(0,0,0)" stroke-width="0.9885053652574968" fill="rgb(0,0,0)" stroke-linecap="butt" stroke-miterlimit="10.0">
    <text dominant-baseline="middle" transform="matrix(1.0000,0.0000,0.0000,1.0000,320.4545,16.5584)" stroke="none" text-anchor="middle">3
    </text>
  </g>
  <defs>
  </defs>
  <g stroke-linejoin="miter" stroke-opacity="1.0" fill-opacity="1.0" font-size="9.74025974025974px" stroke="rgb(0,0,0)" stroke-width="0.9885053652574968" fill="rgb(0,0,0)" stroke-linecap="butt" stroke-miterlimit="10.0">
    <text dominant-baseline="middle" transform="matrix(1.0000,0.0000,0.0000,1.0000,223.0519,26.2987)" stroke="none" text-anchor="middle">flip_right(z)
    </text>
  </g>
  <defs>
  </defs>
  <g stroke-linejoin="miter" stroke-opacity="1.0" fill-opacity="0.0" stroke="rgb(0,0,0)" stroke-width="0.9885053652574968" fill="rgb(0,0,0)" stroke-linecap="butt" stroke-miterlimit="10.0">
    <path d="M 183.0001,36.0390 h 80.1038 "/>
  </g>
  <defs>
  </defs>
  <g stroke-linejoin="miter" stroke-opacity="1.0" fill-opacity="1.0" stroke="rgb(0,0,0)" stroke-width="0.0" fill="rgb(0,0,0)" stroke-linecap="butt" stroke-miterlimit="10.0">
    <path d="M 183.0001,36.0390 l -4.0293,-4.2367 h -9.0098 l 4.3897,4.2367 l -4.3897,4.2367 h 9.0098 l 4.0293,-4.2367 Z"/>
  </g>
  <defs>
  </defs>
  <g stroke-linejoin="miter" stroke-opacity="1.0" fill-opacity="1.0" stroke="rgb(0,0,0)" stroke-width="0.0" fill="rgb(0,0,0)" stroke-linecap="butt" stroke-miterlimit="10.0">
    <path d="M 183.0001,36.0390 v -0.4943 h -0.4701 l 0.4701,0.4943 l -0.4701,0.4943 h 0.4701 v -0.4943 Z"/>
  </g>
  <defs>
  </defs>
  <g stroke-linejoin="miter" stroke-opacity="1.0" fill-opacity="1.0" stroke="rgb(0,0,0)" stroke-width="0.0" fill="rgb(0,0,0)" stroke-linecap="butt" stroke-miterlimit="10.0">
    <path d="M 271.7532,36.0390 l -10.1179,-3.2875 l 1.7283,3.2875 l -1.7283,3.2875 Z"/>
  </g>
  <defs>
  </defs>
  <g stroke-linejoin="miter" stroke-opacity="1.0" fill-opacity="1.0" stroke="rgb(0,0,0)" stroke-width="0.0" fill="rgb(0,0,0)" stroke-linecap="butt" stroke-miterlimit="10.0">
    <path d="M 263.3637,36.0390 h -0.2598 v -0.4943 l 0.2598,0.4943 h -0.2598 v 0.4943 Z"/>
  </g>
  <defs>
  </defs>
  <g stroke-linejoin="miter" stroke-opacity="1.0" fill-opacity="0.0" stroke="rgb(0,0,0)" stroke-width="0.9885053652574968" fill="rgb(0,0,0)" stroke-linecap="butt" stroke-miterlimit="10.0">
    <path d="M 86.6883,16.5584 l 38.9610,38.9610 "/>
  </g>
  <defs>
  </defs>
  <g stroke-linejoin="miter" stroke-opacity="1.0" fill-opacity="0.0" stroke="rgb(0,0,0)" stroke-width="0.9885053652574968" fill="rgb(0,0,0)" stroke-linecap="butt" stroke-miterlimit="10.0">
    <path d="M 86.6883,16.5584 l -38.9610,38.9610 "/>
  </g>
  <defs>
  </defs>
  <g stroke-linejoin="miter" stroke-opacity="1.0" fill-opacity="0.0" stroke="rgb(0,0,0)" stroke-width="0.9885053652574968" fill="rgb(0,0,0)" stroke-linecap="butt" stroke-miterlimit="10.0">
    <path d="M 125.6494,55.5195 l 19.4805,38.9610 "/>
  </g>
  <defs>
  </defs>
  <g stroke-linejoin="miter" stroke-opacity="1.0" fill-opacity="0.0" stroke="rgb(0,0,0)" stroke-width="0.9885053652574968" fill="rgb(0,0,0)" stroke-linecap="butt" stroke-miterlimit="10.0">
    <path d="M 125.6494,55.5195 l -19.4805,38.9610 "/>
  </g>
  <defs>
  </defs>
  <g stroke-linejoin="miter" stroke-opacity="1.0" fill-opacity="1.0" stroke="rgb(0,0,0)" stroke-width="0.0" fill="rgb(255,255,255)" stroke-linecap="butt" stroke-miterlimit="10.0">
    <path d="M 154.8701,94.4805 c 0.0000,-5.3794 -4.3609,-9.7403 -9.7403 -9.7403c -5.3794,-0.0000 -9.7403,4.3609 -9.7403 9.7403c -0.0000,5.3794 4.3609,9.7403 9.7403 9.7403c 5.3794,0.0000 9.7403,-4.3609 9.7403 -9.7403Z"/>
  </g>
  <defs>
  </defs>
  <g stroke-linejoin="miter" stroke-opacity="1.0" fill-opacity="0.0" stroke="rgb(0,0,0)" stroke-width="0.9885053652574968" fill="rgb(0,0,0)" stroke-dashoffset="0.0" stroke-linecap="butt" stroke-miterlimit="10.0" stroke-dasharray="2.471263413143742,2.471263413143742">
    <path d="M 154.8701,94.4805 c 0.0000,5.3794 -4.3609,9.7403 -9.7403 9.7403c -5.3794,0.0000 -9.7403,-4.3609 -9.7403 -9.7403"/>
  </g>
  <defs>
  </defs>
  <g stroke-linejoin="miter" stroke-opacity="1.0" fill-opacity="0.0" stroke="rgb(255,0,0)" stroke-width="0.9885053652574968" fill="rgb(0,0,0)" stroke-dashoffset="0.0" stroke-linecap="butt" stroke-miterlimit="10.0" stroke-dasharray="2.471263413143742,2.471263413143742">
    <path d="M 154.8701,94.4805 c 0.0000,-5.3794 -4.3609,-9.7403 -9.7403 -9.7403c -5.3794,-0.0000 -9.7403,4.3609 -9.7403 9.7403"/>
  </g>
  <defs>
  </defs>
  <g stroke-linejoin="miter" stroke-opacity="1.0" fill-opacity="1.0" font-size="9.74025974025974px" stroke="rgb(0,0,0)" stroke-width="0.9885053652574968" fill="rgb(0,0,0)" stroke-linecap="butt" stroke-miterlimit="10.0">
    <text dominant-baseline="middle" transform="matrix(1.0000,0.0000,0.0000,1.0000,145.1299,94.4805)" stroke="none" text-anchor="middle">13
    </text>
  </g>
  <defs>
  </defs>
  <g stroke-linejoin="miter" stroke-opacity="1.0" fill-opacity="1.0" stroke="rgb(0,0,0)" stroke-width="0.0" fill="rgb(255,255,255)" stroke-linecap="butt" stroke-miterlimit="10.0">
    <path d="M 115.9091,94.4805 c 0.0000,-5.3794 -4.3609,-9.7403 -9.7403 -9.7403c -5.3794,-0.0000 -9.7403,4.3609 -9.7403 9.7403c -0.0000,5.3794 4.3609,9.7403 9.7403 9.7403c 5.3794,0.0000 9.7403,-4.3609 9.7403 -9.7403Z"/>
  </g>
  <defs>
  </defs>
  <g stroke-linejoin="miter" stroke-opacity="1.0" fill-opacity="0.0" stroke="rgb(0,0,0)" stroke-width="0.9885053652574968" fill="rgb(0,0,0)" stroke-dashoffset="0.0" stroke-linecap="butt" stroke-miterlimit="10.0" stroke-dasharray="2.471263413143742,2.471263413143742">
    <path d="M 115.9091,94.4805 c 0.0000,5.3794 -4.3609,9.7403 -9.7403 9.7403c -5.3794,0.0000 -9.7403,-4.3609 -9.7403 -9.7403"/>
  </g>
  <defs>
  </defs>
  <g stroke-linejoin="miter" stroke-opacity="1.0" fill-opacity="0.0" stroke="rgb(255,0,0)" stroke-width="0.9885053652574968" fill="rgb(0,0,0)" stroke-dashoffset="0.0" stroke-linecap="butt" stroke-miterlimit="10.0" stroke-dasharray="2.471263413143742,2.471263413143742">
    <path d="M 115.9091,94.4805 c 0.0000,-5.3794 -4.3609,-9.7403 -9.7403 -9.7403c -5.3794,-0.0000 -9.7403,4.3609 -9.7403 9.7403"/>
  </g>
  <defs>
  </defs>
  <g stroke-linejoin="miter" stroke-opacity="1.0" fill-opacity="1.0" font-size="9.74025974025974px" stroke="rgb(0,0,0)" stroke-width="0.9885053652574968" fill="rgb(0,0,0)" stroke-linecap="butt" stroke-miterlimit="10.0">
    <text dominant-baseline="middle" transform="matrix(1.0000,0.0000,0.0000,1.0000,106.1688,94.4805)" stroke="none" text-anchor="middle">9
    </text>
  </g>
  <defs>
  </defs>
  <g stroke-linejoin="miter" stroke-opacity="1.0" fill-opacity="1.0" stroke="rgb(0,0,0)" stroke-width="0.9885053652574968" fill="rgb(0,0,0)" stroke-linecap="butt" stroke-miterlimit="10.0">
    <path d="M 135.3896,55.5195 c 0.0000,-5.3794 -4.3609,-9.7403 -9.7403 -9.7403c -5.3794,-0.0000 -9.7403,4.3609 -9.7403 9.7403c -0.0000,5.3794 4.3609,9.7403 9.7403 9.7403c 5.3794,0.0000 9.7403,-4.3609 9.7403 -9.7403Z"/>
  </g>
  <defs>
  </defs>
  <g stroke-linejoin="miter" stroke-opacity="1.0" fill-opacity="1.0" font-size="9.74025974025974px" stroke="rgb(0,0,0)" stroke-width="0.9885053652574968" fill="rgb(255,255,255)" stroke-linecap="butt" stroke-miterlimit="10.0">
    <text dominant-baseline="middle" transform="matrix(1.0000,0.0000,0.0000,1.0000,125.6494,55.5195)" stroke="none" text-anchor="middle">11
    </text>
  </g>
  <defs>
  </defs>
  <g stroke-linejoin="miter" stroke-opacity="1.0" fill-opacity="0.0" stroke="rgb(0,0,0)" stroke-width="0.9885053652574968" fill="rgb(0,0,0)" stroke-linecap="butt" stroke-miterlimit="10.0">
    <path d="M 47.7273,55.5195 l 19.4805,38.9610 "/>
  </g>
  <defs>
  </defs>
  <g stroke-linejoin="miter" stroke-opacity="1.0" fill-opacity="0.0" stroke="rgb(0,0,0)" stroke-width="0.9885053652574968" fill="rgb(0,0,0)" stroke-linecap="butt" stroke-miterlimit="10.0">
    <path d="M 47.7273,55.5195 l -19.4805,38.9610 "/>
  </g>
  <defs>
  </defs>
  <g stroke-linejoin="miter" stroke-opacity="1.0" fill-opacity="1.0" stroke="rgb(0,0,0)" stroke-width="1.8534475598578064" fill="rgb(255,255,255)" stroke-linecap="butt" stroke-miterlimit="10.0">
    <path d="M 76.9481,94.4805 c 0.0000,-5.3794 -4.3609,-9.7403 -9.7403 -9.7403c -5.3794,-0.0000 -9.7403,4.3609 -9.7403 9.7403c -0.0000,5.3794 4.3609,9.7403 9.7403 9.7403c 5.3794,0.0000 9.7403,-4.3609 9.7403 -9.7403Z"/>
  </g>
  <defs>
  </defs>
  <g stroke-linejoin="miter" stroke-opacity="1.0" fill-opacity="1.0" font-size="9.74025974025974px" stroke="rgb(0,0,0)" stroke-width="0.9885053652574968" fill="rgb(0,0,0)" stroke-linecap="butt" stroke-miterlimit="10.0">
    <text dominant-baseline="middle" transform="matrix(1.0000,0.0000,0.0000,1.0000,67.2078,94.4805)" stroke="none" text-anchor="middle">5
    </text>
  </g>
  <defs>
  </defs>
  <g stroke-linejoin="miter" stroke-opacity="1.0" fill-opacity="1.0" stroke="rgb(0,0,0)" stroke-width="1.8534475598578064" fill="rgb(255,255,255)" stroke-linecap="butt" stroke-miterlimit="10.0">
    <path d="M 37.9870,94.4805 c 0.0000,-5.3794 -4.3609,-9.7403 -9.7403 -9.7403c -5.3794,-0.0000 -9.7403,4.3609 -9.7403 9.7403c -0.0000,5.3794 4.3609,9.7403 9.7403 9.7403c 5.3794,0.0000 9.7403,-4.3609 9.7403 -9.7403Z"/>
  </g>
  <defs>
  </defs>
  <g stroke-linejoin="miter" stroke-opacity="1.0" fill-opacity="1.0" font-size="9.74025974025974px" stroke="rgb(0,0,0)" stroke-width="0.9885053652574968" fill="rgb(0,0,0)" stroke-linecap="butt" stroke-miterlimit="10.0">
    <text dominant-baseline="middle" transform="matrix(1.0000,0.0000,0.0000,1.0000,28.2468,94.4805)" stroke="none" text-anchor="middle">1
    </text>
  </g>
  <defs>
  </defs>
  <g stroke-linejoin="miter" stroke-opacity="1.0" fill-opacity="1.0" stroke="rgb(255,0,0)" stroke-width="1.8534475598578064" fill="rgb(255,255,255)" stroke-linecap="butt" stroke-miterlimit="10.0">
    <path d="M 57.4675,55.5195 c 0.0000,-5.3794 -4.3609,-9.7403 -9.7403 -9.7403c -5.3794,-0.0000 -9.7403,4.3609 -9.7403 9.7403c -0.0000,5.3794 4.3609,9.7403 9.7403 9.7403c 5.3794,0.0000 9.7403,-4.3609 9.7403 -9.7403Z"/>
  </g>
  <defs>
  </defs>
  <g stroke-linejoin="miter" stroke-opacity="1.0" fill-opacity="1.0" font-size="9.74025974025974px" stroke="rgb(0,0,0)" stroke-width="0.9885053652574968" fill="rgb(0,0,0)" stroke-linecap="butt" stroke-miterlimit="10.0">
    <text dominant-baseline="middle" transform="matrix(1.0000,0.0000,0.0000,1.0000,47.7273,55.5195)" stroke="none" text-anchor="middle">3
    </text>
  </g>
  <defs>
  </defs>
  <g stroke-linejoin="miter" stroke-opacity="1.0" fill-opacity="1.0" font-size="9.74025974025974px" stroke="rgb(0,0,0)" stroke-width="0.9885053652574968" fill="rgb(0,0,0)" stroke-linecap="butt" stroke-miterlimit="10.0">
    <text dominant-baseline="middle" transform="matrix(1.0000,0.0000,0.0000,1.0000,125.6494,16.5584)" stroke="none" text-anchor="middle">z
    </text>
  </g>
  <defs>
  </defs>
  <g stroke-linejoin="miter" stroke-opacity="1.0" fill-opacity="1.0" stroke="rgb(0,0,0)" stroke-width="1.8534475598578064" fill="rgb(255,255,255)" stroke-linecap="butt" stroke-miterlimit="10.0">
    <path d="M 96.4286,16.5584 c 0.0000,-5.3794 -4.3609,-9.7403 -9.7403 -9.7403c -5.3794,-0.0000 -9.7403,4.3609 -9.7403 9.7403c -0.0000,5.3794 4.3609,9.7403 9.7403 9.7403c 5.3794,0.0000 9.7403,-4.3609 9.7403 -9.7403Z"/>
  </g>
  <defs>
  </defs>
  <g stroke-linejoin="miter" stroke-opacity="1.0" fill-opacity="1.0" font-size="9.74025974025974px" stroke="rgb(0,0,0)" stroke-width="0.9885053652574968" fill="rgb(0,0,0)" stroke-linecap="butt" stroke-miterlimit="10.0">
    <text dominant-baseline="middle" transform="matrix(1.0000,0.0000,0.0000,1.0000,86.6883,16.5584)" stroke="none" text-anchor="middle">7
    </text>
  </g>
  <defs>
  </defs>
  <g stroke-linejoin="miter" stroke-opacity="1.0" fill-opacity="0.0" stroke="rgb(0,0,0)" stroke-width="0.9885053652574968" fill="rgb(0,0,0)" stroke-linecap="butt" stroke-miterlimit="10.0">
    <path d="M 121.7532,16.5584 l -13.7532,-0.0000 "/>
  </g>
  <defs>
  </defs>
  <g stroke-linejoin="miter" stroke-opacity="1.0" fill-opacity="1.0" stroke="rgb(0,0,0)" stroke-width="0.0" fill="rgb(0,0,0)" stroke-linecap="butt" stroke-miterlimit="10.0">
  </g>
  <defs>
  </defs>
  <g stroke-linejoin="miter" stroke-opacity="1.0" fill-opacity="1.0" stroke="rgb(0,0,0)" stroke-width="0.0" fill="rgb(0,0,0)" stroke-linecap="butt" stroke-miterlimit="10.0">
  </g>
  <defs>
  </defs>
  <g stroke-linejoin="miter" stroke-opacity="1.0" fill-opacity="1.0" stroke="rgb(0,0,0)" stroke-width="0.0" fill="rgb(0,0,0)" stroke-linecap="butt" stroke-miterlimit="10.0">
    <path d="M 99.3506,16.5584 l 10.1179,3.2875 l -1.7283,-3.2875 l 1.7283,-3.2875 Z"/>
  </g>
  <defs>
  </defs>
  <g stroke-linejoin="miter" stroke-opacity="1.0" fill-opacity="1.0" stroke="rgb(0,0,0)" stroke-width="0.0" fill="rgb(0,0,0)" stroke-linecap="butt" stroke-miterlimit="10.0">
    <path d="M 107.7402,16.5584 l 0.2598,0.0000 l -0.0000,0.4943 l -0.2598,-0.4943 l 0.2598,0.0000 l 0.0000,-0.4943 Z"/>
  </g>
</svg>