<?xml version="1.0" encoding="UTF-8"?>
<!DOCTYPE svg PUBLIC "-//W3C//DTD SVG 1.1//EN"
    "http://www.w3.org/Graphics/SVG/1.1/DTD/svg11.dtd">
<svg xmlns="http://www.w3.org/2000/svg" height="150.0000" stroke-opacity="1" viewBox="0 0 630 150" font-size="1" width="630.0000" xmlns:xlink="http://www.w3.org/1999/xlink" stroke="rgb(0,0,0)" version="1.1">
  <defs>
  </defs>
  <defs>
  </defs>
  <g stroke-linejoin="miter" stroke-opacity="1.0" fill-opacity="0.0" stroke="rgb(0,0,0)" stroke-width="1.2296340919151518" fill="rgb(0,0,0)" stroke-linecap="butt" stroke-miterlimit="10.0">
    <path d="M 505.9091,20.4545 l 54.5455,54.5455 "/>
  </g>
  <defs>
  </defs>
  <g stroke-linejoin="miter" stroke-opacity="1.0" fill-opacity="0.0" stroke="rgb(0,0,0)" stroke-width="1.2296340919151518" fill="rgb(0,0,0)" stroke-linecap="butt" stroke-miterlimit="10.0">
    <path d="M 505.9091,20.4545 l -54.5455,54.5455 "/>
  </g>
  <defs>
  </defs>
  <g stroke-linejoin="miter" stroke-opacity="1.0" fill-opacity="0.0" stroke="rgb(0,0,0)" stroke-width="1.2296340919151518" fill="rgb(0,0,0)" stroke-linecap="butt" stroke-miterlimit="10.0">
    <path d="M 560.4545,75.0000 l 27.2727,54.5455 "/>
  </g>
  <defs>
  </defs>
  <g stroke-linejoin="miter" stroke-opacity="1.0" fill-opacity="0.0" stroke="rgb(0,0,0)" stroke-width="1.2296340919151518" fill="rgb(0,0,0)" stroke-linecap="butt" stroke-miterlimit="10.0">
    <path d="M 560.4545,75.0000 l -27.2727,54.5455 "/>
  </g>
  <defs>
  </defs>
  <g stroke-linejoin="miter" stroke-opacity="1.0" fill-opacity="1.0" stroke="rgb(0,0,0)" stroke-width="0.0" fill="rgb(255,255,255)" stroke-linecap="butt" stroke-miterlimit="10.0">
    <path d="M 601.3636,129.5455 c 0.0000,-7.5312 -6.1052,-13.6364 -13.6364 -13.6364c -7.5312,-0.0000 -13.6364,6.1052 -13.6364 13.6364c -0.0000,7.5312 6.1052,13.6364 13.6364 13.6364c 7.5312,0.0000 13.6364,-6.1052 13.6364 -13.6364Z"/>
  </g>
  <defs>
  </defs>
  <g stroke-linejoin="miter" stroke-opacity="1.0" fill-opacity="0.0" stroke="rgb(0,0,0)" stroke-width="1.2296340919151518" fill="rgb(0,0,0)" stroke-dashoffset="0.0" stroke-linecap="butt" stroke-miterlimit="10.0" stroke-dasharray="3.0740852297878796,3.0740852297878796">
    <path d="M 601.3636,129.5455 c 0.0000,7.5312 -6.1052,13.6364 -13.6364 13.6364c -7.5312,0.0000 -13.6364,-6.1052 -13.6364 -13.6364"/>
  </g>
  <defs>
  </defs>
  <g stroke-linejoin="miter" stroke-opacity="1.0" fill-opacity="0.0" stroke="rgb(255,0,0)" stroke-width="1.2296340919151518" fill="rgb(0,0,0)" stroke-dashoffset="0.0" stroke-linecap="butt" stroke-miterlimit="10.0" stroke-dasharray="3.0740852297878796,3.0740852297878796">
    <path d="M 601.3636,129.5455 c 0.0000,-7.5312 -6.1052,-13.6364 -13.6364 -13.6364c -7.5312,-0.0000 -13.6364,6.1052 -13.6364 13.6364"/>
  </g>
  <defs>
  </defs>
  <g stroke-linejoin="miter" stroke-opacity="1.0" fill-opacity="1.0" font-size="13.636363636363637px" stroke="rgb(0,0,0)" stroke-width="1.2296340919151518" fill="rgb(0,0,0)" stroke-linecap="butt" stroke-miterlimit="10.0">
    <text dominant-baseline="middle" transform="matrix(1.0000,0.0000,0.0000,1.0000,587.7273,129.5455)" stroke="none" text-anchor="middle">13
    </text>
  </g>
  <defs>
  </defs>
  <g stroke-linejoin="miter" stroke-opacity="1.0" fill-opacity="1.0" stroke="rgb(0,0,0)" stroke-width="0.0" fill="rgb(255,255,255)" stroke-linecap="butt" stroke-miterlimit="10.0">
    <path d="M 546.8182,129.5455 c 0.0000,-7.5312 -6.1052,-13.6364 -13.6364 -13.6364c -7.5312,-0.0000 -13.6364,6.1052 -13.6364 13.6364c -0.0000,7.5312 6.1052,13.6364 13.6364 13.6364c 7.5312,0.0000 13.6364,-6.1052 13.6364 -13.6364Z"/>
  </g>
  <defs>
  </defs>
  <g stroke-linejoin="miter" stroke-opacity="1.0" fill-opacity="0.0" stroke="rgb(0,0,0)" stroke-width="1.2296340919151518" fill="rgb(0,0,0)" stroke-dashoffset="0.0" stroke-linecap="butt" stroke-miterlimit="10.0" stroke-dasharray="3.0740852297878796,3.0740852297878796">
    <path d="M 546.8182,129.5455 c 0.0000,7.5312 -6.1052,13.6364 -13.6364 13.6364c -7.5312,0.0000 -13.6364,-6.1052 -13.6364 -13.6364"/>
  </g>
  <defs>
  </defs>
  <g stroke-linejoin="miter" stroke-opacity="1.0" fill-opacity="0.0" stroke="rgb(255,0,0)" stroke-width="1.2296340919151518" fill="rgb(0,0,0)" stroke-dashoffset="0.0" stroke-linecap="butt" stroke-miterlimit="10.0" stroke-dasharray="3.0740852297878796,3.0740852297878796">
    <path d="M 546.8182,129.5455 c 0.0000,-7.5312 -6.1052,-13.6364 -13.6364 -13.6364c -7.5312,-0.0000 -13.6364,6.1052 -13.6364 13.6364"/>
  </g>
  <defs>
  </defs>
  <g stroke-linejoin="miter" stroke-opacity="1.0" fill-opacity="1.0" font-size="13.636363636363637px" stroke="rgb(0,0,0)" stroke-width="1.2296340919151518" fill="rgb(0,0,0)" stroke-linecap="butt" stroke-miterlimit="10.0">
    <text dominant-baseline="middle" transform="matrix(1.0000,0.0000,0.0000,1.0000,533.1818,129.5455)" stroke="none" text-anchor="middle">9
    </text>
  </g>
  <defs>
  </defs>
  <g stroke-linejoin="miter" stroke-opacity="1.0" fill-opacity="1.0" stroke="rgb(0,0,0)" stroke-width="2.3055639223409097" fill="rgb(255,255,255)" stroke-linecap="butt" stroke-miterlimit="10.0">
    <path d="M 574.0909,75.0000 c 0.0000,-7.5312 -6.1052,-13.6364 -13.6364 -13.6364c -7.5312,-0.0000 -13.6364,6.1052 -13.6364 13.6364c -0.0000,7.5312 6.1052,13.6364 13.6364 13.6364c 7.5312,0.0000 13.6364,-6.1052 13.6364 -13.6364Z"/>
  </g>
  <defs>
  </defs>
  <g stroke-linejoin="miter" stroke-opacity="1.0" fill-opacity="1.0" font-size="13.636363636363637px" stroke="rgb(0,0,0)" stroke-width="1.2296340919151518" fill="rgb(0,0,0)" stroke-linecap="butt" stroke-miterlimit="10.0">
    <text dominant-baseline="middle" transform="matrix(1.0000,0.0000,0.0000,1.0000,560.4545,75.0000)" stroke="none" text-anchor="middle">11
    </text>
  </g>
  <defs>
  </defs>
  <g stroke-linejoin="miter" stroke-opacity="1.0" fill-opacity="0.0" stroke="rgb(0,0,0)" stroke-width="1.2296340919151518" fill="rgb(0,0,0)" stroke-linecap="butt" stroke-miterlimit="10.0">
    <path d="M 451.3636,75.0000 l 27.2727,54.5455 "/>
  </g>
  <defs>
  </defs>
  <g stroke-linejoin="miter" stroke-opacity="1.0" fill-opacity="0.0" stroke="rgb(0,0,0)" stroke-width="1.2296340919151518" fill="rgb(0,0,0)" stroke-linecap="butt" stroke-miterlimit="10.0">
    <path d="M 451.3636,75.0000 l -27.2727,54.5455 "/>
  </g>
  <defs>
  </defs>
  <g stroke-linejoin="miter" stroke-opacity="1.0" fill-opacity="1.0" stroke="rgb(0,0,0)" stroke-width="0.0" fill="rgb(255,255,255)" stroke-linecap="butt" stroke-miterlimit="10.0">
    <path d="M 492.2727,129.5455 c 0.0000,-7.5312 -6.1052,-13.6364 -13.6364 -13.6364c -7.5312,-0.0000 -13.6364,6.1052 -13.6364 13.6364c -0.0000,7.5312 6.1052,13.6364 13.6364 13.6364c 7.5312,0.0000 13.6364,-6.1052 13.6364 -13.6364Z"/>
  </g>
  <defs>
  </defs>
  <g stroke-linejoin="miter" stroke-opacity="1.0" fill-opacity="0.0" stroke="rgb(0,0,0)" stroke-width="1.2296340919151518" fill="rgb(0,0,0)" stroke-dashoffset="0.0" stroke-linecap="butt" stroke-miterlimit="10.0" stroke-dasharray="3.0740852297878796,3.0740852297878796">
    <path d="M 492.2727,129.5455 c 0.0000,7.5312 -6.1052,13.6364 -13.6364 13.6364c -7.5312,0.0000 -13.6364,-6.1052 -13.6364 -13.6364"/>
  </g>
  <defs>
  </defs>
  <g stroke-linejoin="miter" stroke-opacity="1.0" fill-opacity="0.0" stroke="rgb(255,0,0)" stroke-width="1.2296340919151518" fill="rgb(0,0,0)" stroke-dashoffset="0.0" stroke-linecap="butt" stroke-miterlimit="10.0" stroke-dasharray="3.0740852297878796,3.0740852297878796">
    <path d="M 492.2727,129.5455 c 0.0000,-7.5312 -6.1052,-13.6364 -13.6364 -13.6364c -7.5312,-0.0000 -13.6364,6.1052 -13.6364 13.6364"/>
  </g>
  <defs>
  </defs>
  <g stroke-linejoin="miter" stroke-opacity="1.0" fill-opacity="1.0" font-size="13.636363636363637px" stroke="rgb(0,0,0)" stroke-width="1.2296340919151518" fill="rgb(0,0,0)" stroke-linecap="butt" stroke-miterlimit="10.0">
    <text dominant-baseline="middle" transform="matrix(1.0000,0.0000,0.0000,1.0000,478.6364,129.5455)" stroke="none" text-anchor="middle">5
    </text>
  </g>
  <defs>
  </defs>
  <g stroke-linejoin="miter" stroke-opacity="1.0" fill-opacity="1.0" stroke="rgb(0,0,0)" stroke-width="0.0" fill="rgb(255,255,255)" stroke-linecap="butt" stroke-miterlimit="10.0">
    <path d="M 437.7273,129.5455 c 0.0000,-7.5312 -6.1052,-13.6364 -13.6364 -13.6364c -7.5312,-0.0000 -13.6364,6.1052 -13.6364 13.6364c -0.0000,7.5312 6.1052,13.6364 13.6364 13.6364c 7.5312,0.0000 13.6364,-6.1052 13.6364 -13.6364Z"/>
  </g>
  <defs>
  </defs>
  <g stroke-linejoin="miter" stroke-opacity="1.0" fill-opacity="0.0" stroke="rgb(0,0,0)" stroke-width="1.2296340919151518" fill="rgb(0,0,0)" stroke-dashoffset="0.0" stroke-linecap="butt" stroke-miterlimit="10.0" stroke-dasharray="3.0740852297878796,3.0740852297878796">
    <path d="M 437.7273,129.5455 c 0.0000,7.5312 -6.1052,13.6364 -13.6364 13.6364c -7.5312,0.0000 -13.6364,-6.1052 -13.6364 -13.6364"/>
  </g>
  <defs>
  </defs>
  <g stroke-linejoin="miter" stroke-opacity="1.0" fill-opacity="0.0" stroke="rgb(255,0,0)" stroke-width="1.2296340919151518" fill="rgb(0,0,0)" stroke-dashoffset="0.0" stroke-linecap="butt" stroke-miterlimit="10.0" stroke-dasharray="3.0740852297878796,3.0740852297878796">
    <path d="M 437.7273,129.5455 c 0.0000,-7.5312 -6.1052,-13.6364 -13.6364 -13.6364c -7.5312,-0.0000 -13.6364,6.1052 -13.6364 13.6364"/>
  </g>
  <defs>
  </defs>
  <g stroke-linejoin="miter" stroke-opacity="1.0" fill-opacity="1.0" font-size="13.636363636363637px" stroke="rgb(0,0,0)" stroke-width="1.2296340919151518" fill="rgb(0,0,0)" stroke-linecap="butt" stroke-miterlimit="10.0">
    <text dominant-baseline="middle" transform="matrix(1.0000,0.0000,0.0000,1.0000,424.0909,129.5455)" stroke="none" text-anchor="middle">1
    </text>
  </g>
  <defs>
  </defs>
  <g stroke-linejoin="miter" stroke-opacity="1.0" fill-opacity="1.0" stroke="rgb(255,0,0)" stroke-width="2.3055639223409097" fill="rgb(255,255,255)" stroke-linecap="butt" stroke-miterlimit="10.0">
    <path d="M 465.0000,75.0000 c 0.0000,-7.5312 -6.1052,-13.6364 -13.6364 -13.6364c -7.5312,-0.0000 -13.6364,6.1052 -13.6364 13.6364c -0.0000,7.5312 6.1052,13.6364 13.6364 13.6364c 7.5312,0.0000 13.6364,-6.1052 13.6364 -13.6364Z"/>
  </g>
  <defs>
  </defs>
  <g stroke-linejoin="miter" stroke-opacity="1.0" fill-opacity="1.0" font-size="13.636363636363637px" stroke="rgb(0,0,0)" stroke-width="1.2296340919151518" fill="rgb(0,0,0)" stroke-linecap="butt" stroke-miterlimit="10.0">
    <text dominant-baseline="middle" transform="matrix(1.0000,0.0000,0.0000,1.0000,451.3636,75.0000)" stroke="none" text-anchor="middle">3
    </text>
  </g>
  <defs>
  </defs>
  <g stroke-linejoin="miter" stroke-opacity="1.0" fill-opacity="1.0" stroke="rgb(0,0,0)" stroke-width="2.3055639223409097" fill="rgb(255,255,255)" stroke-linecap="butt" stroke-miterlimit="10.0">
    <path d="M 519.5455,20.4545 c 0.0000,-7.5312 -6.1052,-13.6364 -13.6364 -13.6364c -7.5312,-0.0000 -13.6364,6.1052 -13.6364 13.6364c -0.0000,7.5312 6.1052,13.6364 13.6364 13.6364c 7.5312,0.0000 13.6364,-6.1052 13.6364 -13.6364Z"/>
  </g>
  <defs>
  </defs>
  <g stroke-linejoin="miter" stroke-opacity="1.0" fill-opacity="1.0" font-size="13.636363636363637px" stroke="rgb(0,0,0)" stroke-width="1.2296340919151518" fill="rgb(0,0,0)" stroke-linecap="butt" stroke-miterlimit="10.0">
    <text dominant-baseline="middle" transform="matrix(1.0000,0.0000,0.0000,1.0000,505.9091,20.4545)" stroke="none" text-anchor="middle">7
    </text>
  </g>
  <defs>
  </defs>
  <g stroke-linejoin="miter" stroke-opacity="1.0" fill-opacity="1.0" font-size="13.636363636363637px" stroke="rgb(0,0,0)" stroke-width="1.2296340919151518" fill="rgb(0,0,0)" stroke-linecap="butt" stroke-miterlimit="10.0">
    <text dominant-baseline="middle" transform="matrix(1.0000,0.0000,0.0000,1.0000,315.0000,34.0909)" stroke="none" text-anchor="middle">pull_black(z)
    </text>
  </g>
  <defs>
  </defs>
  <g stroke-linejoin="miter" stroke-opacity="1.0" fill-opacity="0.0" stroke="rgb(0,0,0)" stroke-width="1.2296340919151518" fill="rgb(0,0,0)" stroke-linecap="butt" stroke-miterlimit="10.0">
    <path d="M 257.5775,47.7273 h 114.8450 "/>
  </g>
  <defs>
  </defs>
  <g stroke-linejoin="miter" stroke-opacity="1.0" fill-opacity="1.0" stroke="rgb(0,0,0)" stroke-width="0.0" fill="rgb(0,0,0)" stroke-linecap="butt" stroke-miterlimit="10.0">
    <path d="M 257.5775,47.7273 l -5.0122,-5.2701 h -11.2076 l 5.4605,5.2701 l -5.4605,5.2701 h 11.2076 l 5.0122,-5.2701 Z"/>
  </g>
  <defs>
  </defs>
  <g stroke-linejoin="miter" stroke-opacity="1.0" fill-opacity="1.0" stroke="rgb(0,0,0)" stroke-width="0.0" fill="rgb(0,0,0)" stroke-linecap="butt" stroke-miterlimit="10.0">
    <path d="M 257.5775,47.7273 v -0.6148 h -0.5847 l 0.5847,0.6148 l -0.5847,0.6148 h 0.5847 v -0.6148 Z"/>
  </g>
  <defs>
  </defs>
  <g stroke-linejoin="miter" stroke-opacity="1.0" fill-opacity="1.0" stroke="rgb(0,0,0)" stroke-width="0.0" fill="rgb(0,0,0)" stroke-linecap="butt" stroke-miterlimit="10.0">
    <path d="M 383.1818,47.7273 l -12.5860,-4.0894 l 2.1499,4.0894 l -2.1499,4.0894 Z"/>
  </g>
  <defs>
  </defs>
  <g stroke-linejoin="miter" stroke-opacity="1.0" fill-opacity="1.0" stroke="rgb(0,0,0)" stroke-width="0.0" fill="rgb(0,0,0)" stroke-linecap="butt" stroke-miterlimit="10.0">
    <path d="M 372.7457,47.7273 h -0.3232 v -0.6148 l 0.3232,0.6148 h -0.3232 v 0.6148 Z"/>
  </g>
  <defs>
  </defs>
  <g stroke-linejoin="miter" stroke-opacity="1.0" fill-opacity="0.0" stroke="rgb(0,0,0)" stroke-width="1.2296340919151518" fill="rgb(0,0,0)" stroke-linecap="butt" stroke-miterlimit="10.0">
    <path d="M 124.0909,20.4545 l 54.5455,54.5455 "/>
  </g>
  <defs>
  </defs>
  <g stroke-linejoin="miter" stroke-opacity="1.0" fill-opacity="0.0" stroke="rgb(0,0,0)" stroke-width="1.2296340919151518" fill="rgb(0,0,0)" stroke-linecap="butt" stroke-miterlimit="10.0">
    <path d="M 124.0909,20.4545 l -54.5455,54.5455 "/>
  </g>
  <defs>
  </defs>
  <g stroke-linejoin="miter" stroke-opacity="1.0" fill-opacity="0.0" stroke="rgb(0,0,0)" stroke-width="1.2296340919151518" fill="rgb(0,0,0)" stroke-linecap="butt" stroke-miterlimit="10.0">
    <path d="M 178.6364,75.0000 l 27.2727,54.5455 "/>
  </g>
  <defs>
  </defs>
  <g stroke-linejoin="miter" stroke-opacity="1.0" fill-opacity="0.0" stroke="rgb(0,0,0)" stroke-width="1.2296340919151518" fill="rgb(0,0,0)" stroke-linecap="butt" stroke-miterlimit="10.0">
    <path d="M 178.6364,75.0000 l -27.2727,54.5455 "/>
  </g>
  <defs>
  </defs>
  <g stroke-linejoin="miter" stroke-opacity="1.0" fill-opacity="1.0" stroke="rgb(0,0,0)" stroke-width="0.0" fill="rgb(255,255,255)" stroke-linecap="butt" stroke-miterlimit="10.0">
    <path d="M 219.5455,129.5455 c 0.0000,-7.5312 -6.1052,-13.6364 -13.6364 -13.6364c -7.5312,-0.0000 -13.6364,6.1052 -13.6364 13.6364c -0.0000,7.5312 6.1052,13.6364 13.6364 13.6364c 7.5312,0.0000 13.6364,-6.1052 13.6364 -13.6364Z"/>
  </g>
  <defs>
  </defs>
  <g stroke-linejoin="miter" stroke-opacity="1.0" fill-opacity="0.0" stroke="rgb(0,0,0)" stroke-width="1.2296340919151518" fill="rgb(0,0,0)" stroke-dashoffset="0.0" stroke-linecap="butt" stroke-miterlimit="10.0" stroke-dasharray="3.0740852297878796,3.0740852297878796">
    <path d="M 219.5455,129.5455 c 0.0000,7.5312 -6.1052,13.6364 -13.6364 13.6364c -7.5312,0.0000 -13.6364,-6.1052 -13.6364 -13.6364"/>
  </g>
  <defs>
  </defs>
  <g stroke-linejoin="miter" stroke-opacity="1.0" fill-opacity="0.0" stroke="rgb(255,0,0)" stroke-width="1.2296340919151518" fill="rgb(0,0,0)" stroke-dashoffset="0.0" stroke-linecap="butt" stroke-miterlimit="10.0" stroke-dasharray="3.0740852297878796,3.0740852297878796">
    <path d="M 219.5455,129.5455 c 0.0000,-7.5312 -6.1052,-13.6364 -13.6364 -13.6364c -7.5312,-0.0000 -13.6364,6.1052 -13.6364 13.6364"/>
  </g>
  <defs>
  </defs>
  <g stroke-linejoin="miter" stroke-opacity="1.0" fill-opacity="1.0" font-size="13.636363636363637px" stroke="rgb(0,0,0)" stroke-width="1.2296340919151518" fill="rgb(0,0,0)" stroke-linecap="butt" stroke-miterlimit="10.0">
    <text dominant-baseline="middle" transform="matrix(1.0000,0.0000,0.0000,1.0000,205.9091,129.5455)" stroke="none" text-anchor="middle">13
    </text>
  </g>
  <defs>
  </defs>
  <g stroke-linejoin="miter" stroke-opacity="1.0" fill-opacity="1.0" stroke="rgb(0,0,0)" stroke-width="0.0" fill="rgb(255,255,255)" stroke-linecap="butt" stroke-miterlimit="10.0">
    <path d="M 165.0000,129.5455 c 0.0000,-7.5312 -6.1052,-13.6364 -13.6364 -13.6364c -7.5312,-0.0000 -13.6364,6.1052 -13.6364 13.6364c -0.0000,7.5312 6.1052,13.6364 13.6364 13.6364c 7.5312,0.0000 13.6364,-6.1052 13.6364 -13.6364Z"/>
  </g>
  <defs>
  </defs>
  <g stroke-linejoin="miter" stroke-opacity="1.0" fill-opacity="0.0" stroke="rgb(0,0,0)" stroke-width="1.2296340919151518" fill="rgb(0,0,0)" stroke-dashoffset="0.0" stroke-linecap="butt" stroke-miterlimit="10.0" stroke-dasharray="3.0740852297878796,3.0740852297878796">
    <path d="M 165.0000,129.5455 c 0.0000,7.5312 -6.1052,13.6364 -13.6364 13.6364c -7.5312,0.0000 -13.6364,-6.1052 -13.6364 -13.6364"/>
  </g>
  <defs>
  </defs>
  <g stroke-linejoin="miter" stroke-opacity="1.0" fill-opacity="0.0" stroke="rgb(255,0,0)" stroke-width="1.2296340919151518" fill="rgb(0,0,0)" stroke-dashoffset="0.0" stroke-linecap="butt" stroke-miterlimit="10.0" stroke-dasharray="3.0740852297878796,3.0740852297878796">
    <path d="M 165.0000,129.5455 c 0.0000,-7.5312 -6.1052,-13.6364 -13.6364 -13.6364c -7.5312,-0.0000 -13.6364,6.1052 -13.6364 13.6364"/>
  </g>
  <defs>
  </defs>
  <g stroke-linejoin="miter" stroke-opacity="1.0" fill-opacity="1.0" font-size="13.636363636363637px" stroke="rgb(0,0,0)" stroke-width="1.2296340919151518" fill="rgb(0,0,0)" stroke-linecap="butt" stroke-miterlimit="10.0">
    <text dominant-baseline="middle" transform="matrix(1.0000,0.0000,0.0000,1.0000,151.3636,129.5455)" stroke="none" text-anchor="middle">9
    </text>
  </g>
  <defs>
  </defs>
  <g stroke-linejoin="miter" stroke-opacity="1.0" fill-opacity="1.0" stroke="rgb(0,0,0)" stroke-width="1.2296340919151518" fill="rgb(0,0,0)" stroke-linecap="butt" stroke-miterlimit="10.0">
    <path d="M 192.2727,75.0000 c 0.0000,-7.5312 -6.1052,-13.6364 -13.6364 -13.6364c -7.5312,-0.0000 -13.6364,6.1052 -13.6364 13.6364c -0.0000,7.5312 6.1052,13.6364 13.6364 13.6364c 7.5312,0.0000 13.6364,-6.1052 13.6364 -13.6364Z"/>
  </g>
  <defs>
  </defs>
  <g stroke-linejoin="miter" stroke-opacity="1.0" fill-opacity="1.0" font-size="13.636363636363637px" stroke="rgb(0,0,0)" stroke-width="1.2296340919151518" fill="rgb(255,255,255)" stroke-linecap="butt" stroke-miterlimit="10.0">
    <text dominant-baseline="middle" transform="matrix(1.0000,0.0000,0.0000,1.0000,178.6364,75.0000)" stroke="none" text-anchor="middle">11
    </text>
  </g>
  <defs>
  </defs>
  <g stroke-linejoin="miter" stroke-opacity="1.0" fill-opacity="0.0" stroke="rgb(0,0,0)" stroke-width="1.2296340919151518" fill="rgb(0,0,0)" stroke-linecap="butt" stroke-miterlimit="10.0">
    <path d="M 69.5455,75.0000 l 27.2727,54.5455 "/>
  </g>
  <defs>
  </defs>
  <g stroke-linejoin="miter" stroke-opacity="1.0" fill-opacity="0.0" stroke="rgb(0,0,0)" stroke-width="1.2296340919151518" fill="rgb(0,0,0)" stroke-linecap="butt" stroke-miterlimit="10.0">
    <path d="M 69.5455,75.0000 l -27.2727,54.5455 "/>
  </g>
  <defs>
  </defs>
  <g stroke-linejoin="miter" stroke-opacity="1.0" fill-opacity="1.0" stroke="rgb(0,0,0)" stroke-width="0.0" fill="rgb(255,255,255)" stroke-linecap="butt" stroke-miterlimit="10.0">
    <path d="M 110.4545,129.5455 c 0.0000,-7.5312 -6.1052,-13.6364 -13.6364 -13.6364c -7.5312,-0.0000 -13.6364,6.1052 -13.6364 13.6364c -0.0000,7.5312 6.1052,13.6364 13.6364 13.6364c 7.5312,0.0000 13.6364,-6.1052 13.6364 -13.6364Z"/>
  </g>
  <defs>
  </defs>
  <g stroke-linejoin="miter" stroke-opacity="1.0" fill-opacity="0.0" stroke="rgb(0,0,0)" stroke-width="1.2296340919151518" fill="rgb(0,0,0)" stroke-dashoffset="0.0" stroke-linecap="butt" stroke-miterlimit="10.0" stroke-dasharray="3.0740852297878796,3.0740852297878796">
    <path d="M 110.4545,129.5455 c 0.0000,7.5312 -6.1052,13.6364 -13.6364 13.6364c -7.5312,0.0000 -13.6364,-6.1052 -13.6364 -13.6364"/>
  </g>
  <defs>
  </defs>
  <g stroke-linejoin="miter" stroke-opacity="1.0" fill-opacity="0.0" stroke="rgb(255,0,0)" stroke-width="1.2296340919151518" fill="rgb(0,0,0)" stroke-dashoffset="0.0" stroke-linecap="butt" stroke-miterlimit="10.0" stroke-dasharray="3.0740852297878796,3.0740852297878796">
    <path d="M 110.4545,129.5455 c 0.0000,-7.5312 -6.1052,-13.6364 -13.6364 -13.6364c -7.5312,-0.0000 -13.6364,6.1052 -13.6364 13.6364"/>
  </g>
  <defs>
  </defs>
  <g stroke-linejoin="miter" stroke-opacity="1.0" fill-opacity="1.0" font-size="13.636363636363637px" stroke="rgb(0,0,0)" stroke-width="1.2296340919151518" fill="rgb(0,0,0)" stroke-linecap="butt" stroke-miterlimit="10.0">
    <text dominant-baseline="middle" transform="matrix(1.0000,0.0000,0.0000,1.0000,96.8182,129.5455)" stroke="none" text-anchor="middle">5
    </text>
  </g>
  <defs>
  </defs>
  <g stroke-linejoin="miter" stroke-opacity="1.0" fill-opacity="1.0" stroke="rgb(0,0,0)" stroke-width="0.0" fill="rgb(255,255,255)" stroke-linecap="butt" stroke-miterlimit="10.0">
    <path d="M 55.9091,129.5455 c 0.0000,-7.5312 -6.1052,-13.6364 -13.6364 -13.6364c -7.5312,-0.0000 -13.6364,6.1052 -13.6364 13.6364c -0.0000,7.5312 6.1052,13.6364 13.6364 13.6364c 7.5312,0.0000 13.6364,-6.1052 13.6364 -13.6364Z"/>
  </g>
  <defs>
  </defs>
  <g stroke-linejoin="miter" stroke-opacity="1.0" fill-opacity="0.0" stroke="rgb(0,0,0)" stroke-width="1.2296340919151518" fill="rgb(0,0,0)" stroke-dashoffset="0.0" stroke-linecap="butt" stroke-miterlimit="10.0" stroke-dasharray="3.0740852297878796,3.0740852297878796">
    <path d="M 55.9091,129.5455 c 0.0000,7.5312 -6.1052,13.6364 -13.6364 13.6364c -7.5312,0.0000 -13.6364,-6.1052 -13.6364 -13.6364"/>
  </g>
  <defs>
  </defs>
  <g stroke-linejoin="miter" stroke-opacity="1.0" fill-opacity="0.0" stroke="rgb(255,0,0)" stroke-width="1.2296340919151518" fill="rgb(0,0,0)" stroke-dashoffset="0.0" stroke-linecap="butt" stroke-miterlimit="10.0" stroke-dasharray="3.0740852297878796,3.0740852297878796">
    <path d="M 55.9091,129.5455 c 0.0000,-7.5312 -6.1052,-13.6364 -13.6364 -13.6364c -7.5312,-0.0000 -13.6364,6.1052 -13.6364 13.6364"/>
  </g>
  <defs>
  </defs>
  <g stroke-linejoin="miter" stroke-opacity="1.0" fill-opacity="1.0" font-size="13.636363636363637px" stroke="rgb(0,0,0)" stroke-width="1.2296340919151518" fill="rgb(0,0,0)" stroke-linecap="butt" stroke-miterlimit="10.0">
    <text dominant-baseline="middle" transform="matrix(1.0000,0.0000,0.0000,1.0000,42.2727,129.5455)" stroke="none" text-anchor="middle">1
    </text>
  </g>
  <defs>
  </defs>
  <g stroke-linejoin="miter" stroke-opacity="1.0" fill-opacity="1.0" stroke="rgb(0,0,0)" stroke-width="2.3055639223409097" fill="rgb(255,255,255)" stroke-linecap="butt" stroke-miterlimit="10.0">
    <path d="M 83.1818,75.0000 c 0.0000,-7.5312 -6.1052,-13.6364 -13.6364 -13.6364c -7.5312,-0.0000 -13.6364,6.1052 -13.6364 13.6364c -0.0000,7.5312 6.1052,13.6364 13.6364 13.6364c 7.5312,0.0000 13.6364,-6.1052 13.6364 -13.6364Z"/>
  </g>
  <defs>
  </defs>
  <g stroke-linejoin="miter" stroke-opacity="1.0" fill-opacity="1.0" font-size="13.636363636363637px" stroke="rgb(0,0,0)" stroke-width="1.2296340919151518" fill="rgb(0,0,0)" stroke-linecap="butt" stroke-miterlimit="10.0">
    <text dominant-baseline="middle" transform="matrix(1.0000,0.0000,0.0000,1.0000,69.5455,75.0000)" stroke="none" text-anchor="middle">3
    </text>
  </g>
  <defs>
  </defs>
  <g stroke-linejoin="miter" stroke-opacity="1.0" fill-opacity="1.0" font-size="13.636363636363637px" stroke="rgb(0,0,0)" stroke-width="1.2296340919151518" fill="rgb(0,0,0)" stroke-linecap="butt" stroke-miterlimit="10.0">
    <text dominant-baseline="middle" transform="matrix(1.0000,0.0000,0.0000,1.0000,178.6364,20.4545)" stroke="none" text-anchor="middle">z
    </text>
  </g>
  <defs>
  </defs>
  <g stroke-linejoin="miter" stroke-opacity="1.0" fill-opacity="1.0" stroke="rgb(255,0,0)" stroke-width="2.3055639223409097" fill="rgb(255,255,255)" stroke-linecap="butt" stroke-miterlimit="10.0">
    <path d="M 137.7273,20.4545 c 0.0000,-7.5312 -6.1052,-13.6364 -13.6364 -13.6364c -7.5312,-0.0000 -13.6364,6.1052 -13.6364 13.6364c -0.0000,7.5312 6.1052,13.6364 13.6364 13.6364c 7.5312,0.0000 13.6364,-6.1052 13.6364 -13.6364Z"/>
  </g>
  <defs>
  </defs>
  <g stroke-linejoin="miter" stroke-opacity="1.0" fill-opacity="1.0" font-size="13.636363636363637px" stroke="rgb(0,0,0)" stroke-width="1.2296340919151518" fill="rgb(0,0,0)" stroke-linecap="butt" stroke-miterlimit="10.0">
    <text dominant-baseline="middle" transform="matrix(1.0000,0.0000,0.0000,1.0000,124.0909,20.4545)" stroke="none" text-anchor="middle">7
    </text>
  </g>
  <defs>
  </defs>
  <g stroke-linejoin="miter" stroke-opacity="1.0" fill-opacity="0.0" stroke="rgb(0,0,0)" stroke-width="1.2296340919151518" fill="rgb(0,0,0)" stroke-linecap="butt" stroke-miterlimit="10.0">
    <path d="M 173.1818,20.4545 l -20.6043,-0.0000 "/>
  </g>
  <defs>
  </defs>
  <g stroke-linejoin="miter" stroke-opacity="1.0" fill-opacity="1.0" stroke="rgb(0,0,0)" stroke-width="0.0" fill="rgb(0,0,0)" stroke-linecap="butt" stroke-miterlimit="10.0">
  </g>
  <defs>
  </defs>
  <g stroke-linejoin="miter" stroke-opacity="1.0" fill-opacity="1.0" stroke="rgb(0,0,0)" stroke-width="0.0" fill="rgb(0,0,0)" stroke-linecap="butt" stroke-miterlimit="10.0">
  </g>
  <defs>
  </defs>
  <g stroke-linejoin="miter" stroke-opacity="1.0" fill-opacity="1.0" stroke="rgb(0,0,0)" stroke-width="0.0" fill="rgb(0,0,0)" stroke-linecap="butt" stroke-miterlimit="10.0">
    <path d="M 141.8182,20.4545 l 12.5860,4.0894 l -2.1499,-4.0894 l 2.1499,-4.0894 Z"/>
  </g>
  <defs>
  </defs>
  <g stroke-linejoin="miter" stroke-opacity="1.0" fill-opacity="1.0" stroke="rgb(0,0,0)" stroke-width="0.0" fill="rgb(0,0,0)" stroke-linecap="butt" stroke-miterlimit="10.0">
    <path d="M 152.2543,20.4545 l 0.3232,0.0000 l -0.0000,0.6148 l -0.3232,-0.6148 l 0.3232,0.0000 l 0.0000,-0.6148 Z"/>
  </g>
</svg>