<?xml version="1.0" encoding="UTF-8"?>
<!DOCTYPE svg PUBLIC "-//W3C//DTD SVG 1.1//EN"
    "http://www.w3.org/Graphics/SVG/1.1/DTD/svg11.dtd">
<svg xmlns="http://www.w3.org/2000/svg" height="150.0000" stroke-opacity="1" viewBox="0 0 664 150" font-size="1" width="664.2857" xmlns:xlink="http://www.w3.org/1999/xlink" stroke="rgb(0,0,0)" version="1.1">
  <defs>
  </defs>
  <defs>
  </defs>
  <g stroke-linejoin="miter" stroke-opacity="1.0" fill-opacity="0.0" stroke="rgb(0,0,0)" stroke-width="1.262650273941963" fill="rgb(0,0,0)" stroke-linecap="butt" stroke-miterlimit="10.0">
    <path d="M 565.9091,16.5584 l 19.4805,38.9610 "/>
  </g>
  <defs>
  </defs>
  <g stroke-linejoin="miter" stroke-opacity="1.0" fill-opacity="0.0" stroke="rgb(0,0,0)" stroke-width="1.262650273941963" fill="rgb(0,0,0)" stroke-linecap="butt" stroke-miterlimit="10.0">
    <path d="M 565.9091,16.5584 l -19.4805,38.9610 "/>
  </g>
  <defs>
  </defs>
  <g stroke-linejoin="miter" stroke-opacity="1.0" fill-opacity="0.0" stroke="rgb(0,0,0)" stroke-width="1.262650273941963" fill="rgb(0,0,0)" stroke-linecap="butt" stroke-miterlimit="10.0">
    <path d="M 585.3896,55.5195 l 19.4805,38.9610 "/>
  </g>
  <defs>
  </defs>
  <g stroke-linejoin="miter" stroke-opacity="1.0" fill-opacity="0.0" stroke="rgb(0,0,0)" stroke-width="1.262650273941963" fill="rgb(0,0,0)" stroke-linecap="butt" stroke-miterlimit="10.0">
    <path d="M 585.3896,55.5195 l -19.4805,38.9610 "/>
  </g>
  <defs>
  </defs>
  <g stroke-linejoin="miter" stroke-opacity="1.0" fill-opacity="0.0" stroke="rgb(0,0,0)" stroke-width="1.262650273941963" fill="rgb(0,0,0)" stroke-linecap="butt" stroke-miterlimit="10.0">
    <path d="M 604.8701,94.4805 l 19.4805,38.9610 "/>
  </g>
  <defs>
  </defs>
  <g stroke-linejoin="miter" stroke-opacity="1.0" fill-opacity="0.0" stroke="rgb(0,0,0)" stroke-width="1.262650273941963" fill="rgb(0,0,0)" stroke-linecap="butt" stroke-miterlimit="10.0">
    <path d="M 604.8701,94.4805 l -19.4805,38.9610 "/>
  </g>
  <defs>
  </defs>
  <g stroke-linejoin="miter" stroke-opacity="1.0" fill-opacity="1.0" stroke="rgb(0,0,0)" stroke-width="0.0" fill="rgb(255,255,255)" stroke-linecap="butt" stroke-miterlimit="10.0">
    <path d="M 634.0909,133.4416 c 0.0000,-5.3794 -4.3609,-9.7403 -9.7403 -9.7403c -5.3794,-0.0000 -9.7403,4.3609 -9.7403 9.7403c -0.0000,5.3794 4.3609,9.7403 9.7403 9.7403c 5.3794,0.0000 9.7403,-4.3609 9.7403 -9.7403Z"/>
  </g>
  <defs>
  </defs>
  <g stroke-linejoin="miter" stroke-opacity="1.0" fill-opacity="0.0" stroke="rgb(0,0,0)" stroke-width="1.262650273941963" fill="rgb(0,0,0)" stroke-dashoffset="0.0" stroke-linecap="butt" stroke-miterlimit="10.0" stroke-dasharray="3.1566256848549075,3.1566256848549075">
    <path d="M 634.0909,133.4416 c 0.0000,5.3794 -4.3609,9.7403 -9.7403 9.7403c -5.3794,0.0000 -9.7403,-4.3609 -9.7403 -9.7403"/>
  </g>
  <defs>
  </defs>
  <g stroke-linejoin="miter" stroke-opacity="1.0" fill-opacity="0.0" stroke="rgb(255,0,0)" stroke-width="1.262650273941963" fill="rgb(0,0,0)" stroke-dashoffset="0.0" stroke-linecap="butt" stroke-miterlimit="10.0" stroke-dasharray="3.1566256848549075,3.1566256848549075">
    <path d="M 634.0909,133.4416 c 0.0000,-5.3794 -4.3609,-9.7403 -9.7403 -9.7403c -5.3794,-0.0000 -9.7403,4.3609 -9.7403 9.7403"/>
  </g>
  <defs>
  </defs>
  <g stroke-linejoin="miter" stroke-opacity="1.0" fill-opacity="1.0" font-size="9.74025974025974px" stroke="rgb(0,0,0)" stroke-width="1.262650273941963" fill="rgb(0,0,0)" stroke-linecap="butt" stroke-miterlimit="10.0">
    <text dominant-baseline="middle" transform="matrix(1.0000,0.0000,0.0000,1.0000,624.3506,133.4416)" stroke="none" text-anchor="middle">13
    </text>
  </g>
  <defs>
  </defs>
  <g stroke-linejoin="miter" stroke-opacity="1.0" fill-opacity="1.0" stroke="rgb(0,0,0)" stroke-width="0.0" fill="rgb(255,255,255)" stroke-linecap="butt" stroke-miterlimit="10.0">
    <path d="M 595.1299,133.4416 c 0.0000,-5.3794 -4.3609,-9.7403 -9.7403 -9.7403c -5.3794,-0.0000 -9.7403,4.3609 -9.7403 9.7403c -0.0000,5.3794 4.3609,9.7403 9.7403 9.7403c 5.3794,0.0000 9.7403,-4.3609 9.7403 -9.7403Z"/>
  </g>
  <defs>
  </defs>
  <g stroke-linejoin="miter" stroke-opacity="1.0" fill-opacity="0.0" stroke="rgb(0,0,0)" stroke-width="1.262650273941963" fill="rgb(0,0,0)" stroke-dashoffset="0.0" stroke-linecap="butt" stroke-miterlimit="10.0" stroke-dasharray="3.1566256848549075,3.1566256848549075">
    <path d="M 595.1299,133.4416 c 0.0000,5.3794 -4.3609,9.7403 -9.7403 9.7403c -5.3794,0.0000 -9.7403,-4.3609 -9.7403 -9.7403"/>
  </g>
  <defs>
  </defs>
  <g stroke-linejoin="miter" stroke-opacity="1.0" fill-opacity="0.0" stroke="rgb(255,0,0)" stroke-width="1.262650273941963" fill="rgb(0,0,0)" stroke-dashoffset="0.0" stroke-linecap="butt" stroke-miterlimit="10.0" stroke-dasharray="3.1566256848549075,3.1566256848549075">
    <path d="M 595.1299,133.4416 c 0.0000,-5.3794 -4.3609,-9.7403 -9.7403 -9.7403c -5.3794,-0.0000 -9.7403,4.3609 -9.7403 9.7403"/>
  </g>
  <defs>
  </defs>
  <g stroke-linejoin="miter" stroke-opacity="1.0" fill-opacity="1.0" font-size="9.74025974025974px" stroke="rgb(0,0,0)" stroke-width="1.262650273941963" fill="rgb(0,0,0)" stroke-linecap="butt" stroke-miterlimit="10.0">
    <text dominant-baseline="middle" transform="matrix(1.0000,0.0000,0.0000,1.0000,585.3896,133.4416)" stroke="none" text-anchor="middle">9
    </text>
  </g>
  <defs>
  </defs>
  <g stroke-linejoin="miter" stroke-opacity="1.0" fill-opacity="1.0" stroke="rgb(0,0,0)" stroke-width="2.3674692636411803" fill="rgb(255,255,255)" stroke-linecap="butt" stroke-miterlimit="10.0">
    <path d="M 614.6104,94.4805 c 0.0000,-5.3794 -4.3609,-9.7403 -9.7403 -9.7403c -5.3794,-0.0000 -9.7403,4.3609 -9.7403 9.7403c -0.0000,5.3794 4.3609,9.7403 9.7403 9.7403c 5.3794,0.0000 9.7403,-4.3609 9.7403 -9.7403Z"/>
  </g>
  <defs>
  </defs>
  <g stroke-linejoin="miter" stroke-opacity="1.0" fill-opacity="1.0" font-size="9.74025974025974px" stroke="rgb(0,0,0)" stroke-width="1.262650273941963" fill="rgb(0,0,0)" stroke-linecap="butt" stroke-miterlimit="10.0">
    <text dominant-baseline="middle" transform="matrix(1.0000,0.0000,0.0000,1.0000,604.8701,94.4805)" stroke="none" text-anchor="middle">11
    </text>
  </g>
  <defs>
  </defs>
  <g stroke-linejoin="miter" stroke-opacity="1.0" fill-opacity="1.0" stroke="rgb(0,0,0)" stroke-width="0.0" fill="rgb(255,255,255)" stroke-linecap="butt" stroke-miterlimit="10.0">
    <path d="M 575.6494,94.4805 c 0.0000,-5.3794 -4.3609,-9.7403 -9.7403 -9.7403c -5.3794,-0.0000 -9.7403,4.3609 -9.7403 9.7403c -0.0000,5.3794 4.3609,9.7403 9.7403 9.7403c 5.3794,0.0000 9.7403,-4.3609 9.7403 -9.7403Z"/>
  </g>
  <defs>
  </defs>
  <g stroke-linejoin="miter" stroke-opacity="1.0" fill-opacity="0.0" stroke="rgb(0,0,0)" stroke-width="1.262650273941963" fill="rgb(0,0,0)" stroke-dashoffset="0.0" stroke-linecap="butt" stroke-miterlimit="10.0" stroke-dasharray="3.1566256848549075,3.1566256848549075">
    <path d="M 575.6494,94.4805 c 0.0000,5.3794 -4.3609,9.7403 -9.7403 9.7403c -5.3794,0.0000 -9.7403,-4.3609 -9.7403 -9.7403"/>
  </g>
  <defs>
  </defs>
  <g stroke-linejoin="miter" stroke-opacity="1.0" fill-opacity="0.0" stroke="rgb(255,0,0)" stroke-width="1.262650273941963" fill="rgb(0,0,0)" stroke-dashoffset="0.0" stroke-linecap="butt" stroke-miterlimit="10.0" stroke-dasharray="3.1566256848549075,3.1566256848549075">
    <path d="M 575.6494,94.4805 c 0.0000,-5.3794 -4.3609,-9.7403 -9.7403 -9.7403c -5.3794,-0.0000 -9.7403,4.3609 -9.7403 9.7403"/>
  </g>
  <defs>
  </defs>
  <g stroke-linejoin="miter" stroke-opacity="1.0" fill-opacity="1.0" font-size="9.74025974025974px" stroke="rgb(0,0,0)" stroke-width="1.262650273941963" fill="rgb(0,0,0)" stroke-linecap="butt" stroke-miterlimit="10.0">
    <text dominant-baseline="middle" transform="matrix(1.0000,0.0000,0.0000,1.0000,565.9091,94.4805)" stroke="none" text-anchor="middle">5
    </text>
  </g>
  <defs>
  </defs>
  <g stroke-linejoin="miter" stroke-opacity="1.0" fill-opacity="1.0" stroke="rgb(0,0,0)" stroke-width="2.3674692636411803" fill="rgb(255,255,255)" stroke-linecap="butt" stroke-miterlimit="10.0">
    <path d="M 595.1299,55.5195 c 0.0000,-5.3794 -4.3609,-9.7403 -9.7403 -9.7403c -5.3794,-0.0000 -9.7403,4.3609 -9.7403 9.7403c -0.0000,5.3794 4.3609,9.7403 9.7403 9.7403c 5.3794,0.0000 9.7403,-4.3609 9.7403 -9.7403Z"/>
  </g>
  <defs>
  </defs>
  <g stroke-linejoin="miter" stroke-opacity="1.0" fill-opacity="1.0" font-size="9.74025974025974px" stroke="rgb(0,0,0)" stroke-width="1.262650273941963" fill="rgb(0,0,0)" stroke-linecap="butt" stroke-miterlimit="10.0">
    <text dominant-baseline="middle" transform="matrix(1.0000,0.0000,0.0000,1.0000,585.3896,55.5195)" stroke="none" text-anchor="middle">7
    </text>
  </g>
  <defs>
  </defs>
  <g stroke-linejoin="miter" stroke-opacity="1.0" fill-opacity="1.0" stroke="rgb(0,0,0)" stroke-width="2.3674692636411803" fill="rgb(255,255,255)" stroke-linecap="butt" stroke-miterlimit="10.0">
    <path d="M 556.1688,55.5195 c 0.0000,-5.3794 -4.3609,-9.7403 -9.7403 -9.7403c -5.3794,-0.0000 -9.7403,4.3609 -9.7403 9.7403c -0.0000,5.3794 4.3609,9.7403 9.7403 9.7403c 5.3794,0.0000 9.7403,-4.3609 9.7403 -9.7403Z"/>
  </g>
  <defs>
  </defs>
  <g stroke-linejoin="miter" stroke-opacity="1.0" fill-opacity="1.0" font-size="9.74025974025974px" stroke="rgb(0,0,0)" stroke-width="1.262650273941963" fill="rgb(0,0,0)" stroke-linecap="butt" stroke-miterlimit="10.0">
    <text dominant-baseline="middle" transform="matrix(1.0000,0.0000,0.0000,1.0000,546.4286,55.5195)" stroke="none" text-anchor="middle">1
    </text>
  </g>
  <defs>
  </defs>
  <g stroke-linejoin="miter" stroke-opacity="1.0" fill-opacity="1.0" stroke="rgb(0,0,0)" stroke-width="2.3674692636411803" fill="rgb(255,255,255)" stroke-linecap="butt" stroke-miterlimit="10.0">
    <path d="M 575.6494,16.5584 c 0.0000,-5.3794 -4.3609,-9.7403 -9.7403 -9.7403c -5.3794,-0.0000 -9.7403,4.3609 -9.7403 9.7403c -0.0000,5.3794 4.3609,9.7403 9.7403 9.7403c 5.3794,0.0000 9.7403,-4.3609 9.7403 -9.7403Z"/>
  </g>
  <defs>
  </defs>
  <g stroke-linejoin="miter" stroke-opacity="1.0" fill-opacity="1.0" font-size="9.74025974025974px" stroke="rgb(0,0,0)" stroke-width="1.262650273941963" fill="rgb(0,0,0)" stroke-linecap="butt" stroke-miterlimit="10.0">
    <text dominant-baseline="middle" transform="matrix(1.0000,0.0000,0.0000,1.0000,565.9091,16.5584)" stroke="none" text-anchor="middle">3
    </text>
  </g>
  <defs>
  </defs>
  <g stroke-linejoin="miter" stroke-opacity="1.0" fill-opacity="1.0" font-size="9.74025974025974px" stroke="rgb(0,0,0)" stroke-width="1.262650273941963" fill="rgb(0,0,0)" stroke-linecap="butt" stroke-miterlimit="10.0">
    <text dominant-baseline="middle" transform="matrix(1.0000,0.0000,0.0000,1.0000,468.5065,26.2987)" stroke="none" text-anchor="middle">push_black(3)
    </text>
  </g>
  <defs>
  </defs>
  <g stroke-linejoin="miter" stroke-opacity="1.0" fill-opacity="0.0" stroke="rgb(0,0,0)" stroke-width="1.262650273941963" fill="rgb(0,0,0)" stroke-linecap="butt" stroke-miterlimit="10.0">
    <path d="M 430.8534,36.0390 h 75.3062 "/>
  </g>
  <defs>
  </defs>
  <g stroke-linejoin="miter" stroke-opacity="1.0" fill-opacity="1.0" stroke="rgb(0,0,0)" stroke-width="0.0" fill="rgb(0,0,0)" stroke-linecap="butt" stroke-miterlimit="10.0">
    <path d="M 430.8534,36.0390 l -5.1468,-5.4116 h -11.5085 l 5.6071,5.4116 l -5.6071,5.4116 h 11.5085 l 5.1468,-5.4116 Z"/>
  </g>
  <defs>
  </defs>
  <g stroke-linejoin="miter" stroke-opacity="1.0" fill-opacity="1.0" stroke="rgb(0,0,0)" stroke-width="0.0" fill="rgb(0,0,0)" stroke-linecap="butt" stroke-miterlimit="10.0">
    <path d="M 430.8534,36.0390 v -0.6313 h -0.6004 l 0.6004,0.6313 l -0.6004,0.6313 h 0.6004 v -0.6313 Z"/>
  </g>
  <defs>
  </defs>
  <g stroke-linejoin="miter" stroke-opacity="1.0" fill-opacity="1.0" stroke="rgb(0,0,0)" stroke-width="0.0" fill="rgb(0,0,0)" stroke-linecap="butt" stroke-miterlimit="10.0">
    <path d="M 517.2078,36.0390 l -12.9240,-4.1992 l 2.2077,4.1992 l -2.2077,4.1992 Z"/>
  </g>
  <defs>
  </defs>
  <g stroke-linejoin="miter" stroke-opacity="1.0" fill-opacity="1.0" stroke="rgb(0,0,0)" stroke-width="0.0" fill="rgb(0,0,0)" stroke-linecap="butt" stroke-miterlimit="10.0">
    <path d="M 506.4915,36.0390 h -0.3319 v -0.6313 l 0.3319,0.6313 h -0.3319 v 0.6313 Z"/>
  </g>
  <defs>
  </defs>
  <g stroke-linejoin="miter" stroke-opacity="1.0" fill-opacity="0.0" stroke="rgb(0,0,0)" stroke-width="1.262650273941963" fill="rgb(0,0,0)" stroke-linecap="butt" stroke-miterlimit="10.0">
    <path d="M 332.1429,16.5584 l 19.4805,38.9610 "/>
  </g>
  <defs>
  </defs>
  <g stroke-linejoin="miter" stroke-opacity="1.0" fill-opacity="0.0" stroke="rgb(0,0,0)" stroke-width="1.262650273941963" fill="rgb(0,0,0)" stroke-linecap="butt" stroke-miterlimit="10.0">
    <path d="M 332.1429,16.5584 l -19.4805,38.9610 "/>
  </g>
  <defs>
  </defs>
  <g stroke-linejoin="miter" stroke-opacity="1.0" fill-opacity="0.0" stroke="rgb(0,0,0)" stroke-width="1.262650273941963" fill="rgb(0,0,0)" stroke-linecap="butt" stroke-miterlimit="10.0">
    <path d="M 351.6234,55.5195 l 19.4805,38.9610 "/>
  </g>
  <defs>
  </defs>
  <g stroke-linejoin="miter" stroke-opacity="1.0" fill-opacity="0.0" stroke="rgb(0,0,0)" stroke-width="1.262650273941963" fill="rgb(0,0,0)" stroke-linecap="butt" stroke-miterlimit="10.0">
    <path d="M 351.6234,55.5195 l -19.4805,38.9610 "/>
  </g>
  <defs>
  </defs>
  <g stroke-linejoin="miter" stroke-opacity="1.0" fill-opacity="0.0" stroke="rgb(0,0,0)" stroke-width="1.262650273941963" fill="rgb(0,0,0)" stroke-linecap="butt" stroke-miterlimit="10.0">
    <path d="M 371.1039,94.4805 l 19.4805,38.9610 "/>
  </g>
  <defs>
  </defs>
  <g stroke-linejoin="miter" stroke-opacity="1.0" fill-opacity="0.0" stroke="rgb(0,0,0)" stroke-width="1.262650273941963" fill="rgb(0,0,0)" stroke-linecap="butt" stroke-miterlimit="10.0">
    <path d="M 371.1039,94.4805 l -19.4805,38.9610 "/>
  </g>
  <defs>
  </defs>
  <g stroke-linejoin="miter" stroke-opacity="1.0" fill-opacity="1.0" stroke="rgb(0,0,0)" stroke-width="0.0" fill="rgb(255,255,255)" stroke-linecap="butt" stroke-miterlimit="10.0">
    <path d="M 400.3247,133.4416 c 0.0000,-5.3794 -4.3609,-9.7403 -9.7403 -9.7403c -5.3794,-0.0000 -9.7403,4.3609 -9.7403 9.7403c -0.0000,5.3794 4.3609,9.7403 9.7403 9.7403c 5.3794,0.0000 9.7403,-4.3609 9.7403 -9.7403Z"/>
  </g>
  <defs>
  </defs>
  <g stroke-linejoin="miter" stroke-opacity="1.0" fill-opacity="0.0" stroke="rgb(0,0,0)" stroke-width="1.262650273941963" fill="rgb(0,0,0)" stroke-dashoffset="0.0" stroke-linecap="butt" stroke-miterlimit="10.0" stroke-dasharray="3.1566256848549075,3.1566256848549075">
    <path d="M 400.3247,133.4416 c 0.0000,5.3794 -4.3609,9.7403 -9.7403 9.7403c -5.3794,0.0000 -9.7403,-4.3609 -9.7403 -9.7403"/>
  </g>
  <defs>
  </defs>
  <g stroke-linejoin="miter" stroke-opacity="1.0" fill-opacity="0.0" stroke="rgb(255,0,0)" stroke-width="1.262650273941963" fill="rgb(0,0,0)" stroke-dashoffset="0.0" stroke-linecap="butt" stroke-miterlimit="10.0" stroke-dasharray="3.1566256848549075,3.1566256848549075">
    <path d="M 400.3247,133.4416 c 0.0000,-5.3794 -4.3609,-9.7403 -9.7403 -9.7403c -5.3794,-0.0000 -9.7403,4.3609 -9.7403 9.7403"/>
  </g>
  <defs>
  </defs>
  <g stroke-linejoin="miter" stroke-opacity="1.0" fill-opacity="1.0" font-size="9.74025974025974px" stroke="rgb(0,0,0)" stroke-width="1.262650273941963" fill="rgb(0,0,0)" stroke-linecap="butt" stroke-miterlimit="10.0">
    <text dominant-baseline="middle" transform="matrix(1.0000,0.0000,0.0000,1.0000,390.5844,133.4416)" stroke="none" text-anchor="middle">13
    </text>
  </g>
  <defs>
  </defs>
  <g stroke-linejoin="miter" stroke-opacity="1.0" fill-opacity="1.0" stroke="rgb(0,0,0)" stroke-width="0.0" fill="rgb(255,255,255)" stroke-linecap="butt" stroke-miterlimit="10.0">
    <path d="M 361.3636,133.4416 c 0.0000,-5.3794 -4.3609,-9.7403 -9.7403 -9.7403c -5.3794,-0.0000 -9.7403,4.3609 -9.7403 9.7403c -0.0000,5.3794 4.3609,9.7403 9.7403 9.7403c 5.3794,0.0000 9.7403,-4.3609 9.7403 -9.7403Z"/>
  </g>
  <defs>
  </defs>
  <g stroke-linejoin="miter" stroke-opacity="1.0" fill-opacity="0.0" stroke="rgb(0,0,0)" stroke-width="1.262650273941963" fill="rgb(0,0,0)" stroke-dashoffset="0.0" stroke-linecap="butt" stroke-miterlimit="10.0" stroke-dasharray="3.1566256848549075,3.1566256848549075">
    <path d="M 361.3636,133.4416 c 0.0000,5.3794 -4.3609,9.7403 -9.7403 9.7403c -5.3794,0.0000 -9.7403,-4.3609 -9.7403 -9.7403"/>
  </g>
  <defs>
  </defs>
  <g stroke-linejoin="miter" stroke-opacity="1.0" fill-opacity="0.0" stroke="rgb(255,0,0)" stroke-width="1.262650273941963" fill="rgb(0,0,0)" stroke-dashoffset="0.0" stroke-linecap="butt" stroke-miterlimit="10.0" stroke-dasharray="3.1566256848549075,3.1566256848549075">
    <path d="M 361.3636,133.4416 c 0.0000,-5.3794 -4.3609,-9.7403 -9.7403 -9.7403c -5.3794,-0.0000 -9.7403,4.3609 -9.7403 9.7403"/>
  </g>
  <defs>
  </defs>
  <g stroke-linejoin="miter" stroke-opacity="1.0" fill-opacity="1.0" font-size="9.74025974025974px" stroke="rgb(0,0,0)" stroke-width="1.262650273941963" fill="rgb(0,0,0)" stroke-linecap="butt" stroke-miterlimit="10.0">
    <text dominant-baseline="middle" transform="matrix(1.0000,0.0000,0.0000,1.0000,351.6234,133.4416)" stroke="none" text-anchor="middle">9
    </text>
  </g>
  <defs>
  </defs>
  <g stroke-linejoin="miter" stroke-opacity="1.0" fill-opacity="1.0" stroke="rgb(0,0,0)" stroke-width="2.3674692636411803" fill="rgb(255,255,255)" stroke-linecap="butt" stroke-miterlimit="10.0">
    <path d="M 380.8442,94.4805 c 0.0000,-5.3794 -4.3609,-9.7403 -9.7403 -9.7403c -5.3794,-0.0000 -9.7403,4.3609 -9.7403 9.7403c -0.0000,5.3794 4.3609,9.7403 9.7403 9.7403c 5.3794,0.0000 9.7403,-4.3609 9.7403 -9.7403Z"/>
  </g>
  <defs>
  </defs>
  <g stroke-linejoin="miter" stroke-opacity="1.0" fill-opacity="1.0" font-size="9.74025974025974px" stroke="rgb(0,0,0)" stroke-width="1.262650273941963" fill="rgb(0,0,0)" stroke-linecap="butt" stroke-miterlimit="10.0">
    <text dominant-baseline="middle" transform="matrix(1.0000,0.0000,0.0000,1.0000,371.1039,94.4805)" stroke="none" text-anchor="middle">11
    </text>
  </g>
  <defs>
  </defs>
  <g stroke-linejoin="miter" stroke-opacity="1.0" fill-opacity="1.0" stroke="rgb(0,0,0)" stroke-width="0.0" fill="rgb(255,255,255)" stroke-linecap="butt" stroke-miterlimit="10.0">
    <path d="M 341.8831,94.4805 c 0.0000,-5.3794 -4.3609,-9.7403 -9.7403 -9.7403c -5.3794,-0.0000 -9.7403,4.3609 -9.7403 9.7403c -0.0000,5.3794 4.3609,9.7403 9.7403 9.7403c 5.3794,0.0000 9.7403,-4.3609 9.7403 -9.7403Z"/>
  </g>
  <defs>
  </defs>
  <g stroke-linejoin="miter" stroke-opacity="1.0" fill-opacity="0.0" stroke="rgb(0,0,0)" stroke-width="1.262650273941963" fill="rgb(0,0,0)" stroke-dashoffset="0.0" stroke-linecap="butt" stroke-miterlimit="10.0" stroke-dasharray="3.1566256848549075,3.1566256848549075">
    <path d="M 341.8831,94.4805 c 0.0000,5.3794 -4.3609,9.7403 -9.7403 9.7403c -5.3794,0.0000 -9.7403,-4.3609 -9.7403 -9.7403"/>
  </g>
  <defs>
  </defs>
  <g stroke-linejoin="miter" stroke-opacity="1.0" fill-opacity="0.0" stroke="rgb(255,0,0)" stroke-width="1.262650273941963" fill="rgb(0,0,0)" stroke-dashoffset="0.0" stroke-linecap="butt" stroke-miterlimit="10.0" stroke-dasharray="3.1566256848549075,3.1566256848549075">
    <path d="M 341.8831,94.4805 c 0.0000,-5.3794 -4.3609,-9.7403 -9.7403 -9.7403c -5.3794,-0.0000 -9.7403,4.3609 -9.7403 9.7403"/>
  </g>
  <defs>
  </defs>
  <g stroke-linejoin="miter" stroke-opacity="1.0" fill-opacity="1.0" font-size="9.74025974025974px" stroke="rgb(0,0,0)" stroke-width="1.262650273941963" fill="rgb(0,0,0)" stroke-linecap="butt" stroke-miterlimit="10.0">
    <text dominant-baseline="middle" transform="matrix(1.0000,0.0000,0.0000,1.0000,332.1429,94.4805)" stroke="none" text-anchor="middle">5
    </text>
  </g>
  <defs>
  </defs>
  <g stroke-linejoin="miter" stroke-opacity="1.0" fill-opacity="1.0" stroke="rgb(255,0,0)" stroke-width="2.3674692636411803" fill="rgb(255,255,255)" stroke-linecap="butt" stroke-miterlimit="10.0">
    <path d="M 361.3636,55.5195 c 0.0000,-5.3794 -4.3609,-9.7403 -9.7403 -9.7403c -5.3794,-0.0000 -9.7403,4.3609 -9.7403 9.7403c -0.0000,5.3794 4.3609,9.7403 9.7403 9.7403c 5.3794,0.0000 9.7403,-4.3609 9.7403 -9.7403Z"/>
  </g>
  <defs>
  </defs>
  <g stroke-linejoin="miter" stroke-opacity="1.0" fill-opacity="1.0" font-size="9.74025974025974px" stroke="rgb(0,0,0)" stroke-width="1.262650273941963" fill="rgb(0,0,0)" stroke-linecap="butt" stroke-miterlimit="10.0">
    <text dominant-baseline="middle" transform="matrix(1.0000,0.0000,0.0000,1.0000,351.6234,55.5195)" stroke="none" text-anchor="middle">7
    </text>
  </g>
  <defs>
  </defs>
  <g stroke-linejoin="miter" stroke-opacity="1.0" fill-opacity="1.0" stroke="rgb(255,0,0)" stroke-width="2.3674692636411803" fill="rgb(255,255,255)" stroke-linecap="butt" stroke-miterlimit="10.0">
    <path d="M 322.4026,55.5195 c 0.0000,-5.3794 -4.3609,-9.7403 -9.7403 -9.7403c -5.3794,-0.0000 -9.7403,4.3609 -9.7403 9.7403c -0.0000,5.3794 4.3609,9.7403 9.7403 9.7403c 5.3794,0.0000 9.7403,-4.3609 9.7403 -9.7403Z"/>
  </g>
  <defs>
  </defs>
  <g stroke-linejoin="miter" stroke-opacity="1.0" fill-opacity="1.0" font-size="9.74025974025974px" stroke="rgb(0,0,0)" stroke-width="1.262650273941963" fill="rgb(0,0,0)" stroke-linecap="butt" stroke-miterlimit="10.0">
    <text dominant-baseline="middle" transform="matrix(1.0000,0.0000,0.0000,1.0000,312.6623,55.5195)" stroke="none" text-anchor="middle">1
    </text>
  </g>
  <defs>
  </defs>
  <g stroke-linejoin="miter" stroke-opacity="1.0" fill-opacity="1.0" stroke="rgb(0,0,0)" stroke-width="1.262650273941963" fill="rgb(0,0,0)" stroke-linecap="butt" stroke-miterlimit="10.0">
    <path d="M 341.8831,16.5584 c 0.0000,-5.3794 -4.3609,-9.7403 -9.7403 -9.7403c -5.3794,-0.0000 -9.7403,4.3609 -9.7403 9.7403c -0.0000,5.3794 4.3609,9.7403 9.7403 9.7403c 5.3794,0.0000 9.7403,-4.3609 9.7403 -9.7403Z"/>
  </g>
  <defs>
  </defs>
  <g stroke-linejoin="miter" stroke-opacity="1.0" fill-opacity="1.0" font-size="9.74025974025974px" stroke="rgb(0,0,0)" stroke-width="1.262650273941963" fill="rgb(255,255,255)" stroke-linecap="butt" stroke-miterlimit="10.0">
    <text dominant-baseline="middle" transform="matrix(1.0000,0.0000,0.0000,1.0000,332.1429,16.5584)" stroke="none" text-anchor="middle">3
    </text>
  </g>
  <defs>
  </defs>
  <g stroke-linejoin="miter" stroke-opacity="1.0" fill-opacity="1.0" font-size="9.74025974025974px" stroke="rgb(0,0,0)" stroke-width="1.262650273941963" fill="rgb(0,0,0)" stroke-linecap="butt" stroke-miterlimit="10.0">
    <text dominant-baseline="middle" transform="matrix(1.0000,0.0000,0.0000,1.0000,234.7403,26.2987)" stroke="none" text-anchor="middle">flip_right(7)
    </text>
  </g>
  <defs>
  </defs>
  <g stroke-linejoin="miter" stroke-opacity="1.0" fill-opacity="0.0" stroke="rgb(0,0,0)" stroke-width="1.262650273941963" fill="rgb(0,0,0)" stroke-linecap="butt" stroke-miterlimit="10.0">
    <path d="M 197.0872,36.0390 h 75.3062 "/>
  </g>
  <defs>
  </defs>
  <g stroke-linejoin="miter" stroke-opacity="1.0" fill-opacity="1.0" stroke="rgb(0,0,0)" stroke-width="0.0" fill="rgb(0,0,0)" stroke-linecap="butt" stroke-miterlimit="10.0">
    <path d="M 197.0872,36.0390 l -5.1468,-5.4116 h -11.5085 l 5.6071,5.4116 l -5.6071,5.4116 h 11.5085 l 5.1468,-5.4116 Z"/>
  </g>
  <defs>
  </defs>
  <g stroke-linejoin="miter" stroke-opacity="1.0" fill-opacity="1.0" stroke="rgb(0,0,0)" stroke-width="0.0" fill="rgb(0,0,0)" stroke-linecap="butt" stroke-miterlimit="10.0">
    <path d="M 197.0872,36.0390 v -0.6313 h -0.6004 l 0.6004,0.6313 l -0.6004,0.6313 h 0.6004 v -0.6313 Z"/>
  </g>
  <defs>
  </defs>
  <g stroke-linejoin="miter" stroke-opacity="1.0" fill-opacity="1.0" stroke="rgb(0,0,0)" stroke-width="0.0" fill="rgb(0,0,0)" stroke-linecap="butt" stroke-miterlimit="10.0">
    <path d="M 283.4416,36.0390 l -12.9240,-4.1992 l 2.2077,4.1992 l -2.2077,4.1992 Z"/>
  </g>
  <defs>
  </defs>
  <g stroke-linejoin="miter" stroke-opacity="1.0" fill-opacity="1.0" stroke="rgb(0,0,0)" stroke-width="0.0" fill="rgb(0,0,0)" stroke-linecap="butt" stroke-miterlimit="10.0">
    <path d="M 272.7253,36.0390 h -0.3319 v -0.6313 l 0.3319,0.6313 h -0.3319 v 0.6313 Z"/>
  </g>
  <defs>
  </defs>
  <g stroke-linejoin="miter" stroke-opacity="1.0" fill-opacity="0.0" stroke="rgb(0,0,0)" stroke-width="1.262650273941963" fill="rgb(0,0,0)" stroke-linecap="butt" stroke-miterlimit="10.0">
    <path d="M 98.3766,16.5584 l 38.9610,38.9610 "/>
  </g>
  <defs>
  </defs>
  <g stroke-linejoin="miter" stroke-opacity="1.0" fill-opacity="0.0" stroke="rgb(0,0,0)" stroke-width="1.262650273941963" fill="rgb(0,0,0)" stroke-linecap="butt" stroke-miterlimit="10.0">
    <path d="M 98.3766,16.5584 l -38.9610,38.9610 "/>
  </g>
  <defs>
  </defs>
  <g stroke-linejoin="miter" stroke-opacity="1.0" fill-opacity="0.0" stroke="rgb(0,0,0)" stroke-width="1.262650273941963" fill="rgb(0,0,0)" stroke-linecap="butt" stroke-miterlimit="10.0">
    <path d="M 137.3377,55.5195 l 19.4805,38.9610 "/>
  </g>
  <defs>
  </defs>
  <g stroke-linejoin="miter" stroke-opacity="1.0" fill-opacity="0.0" stroke="rgb(0,0,0)" stroke-width="1.262650273941963" fill="rgb(0,0,0)" stroke-linecap="butt" stroke-miterlimit="10.0">
    <path d="M 137.3377,55.5195 l -19.4805,38.9610 "/>
  </g>
  <defs>
  </defs>
  <g stroke-linejoin="miter" stroke-opacity="1.0" fill-opacity="1.0" stroke="rgb(0,0,0)" stroke-width="0.0" fill="rgb(255,255,255)" stroke-linecap="butt" stroke-miterlimit="10.0">
    <path d="M 166.5584,94.4805 c 0.0000,-5.3794 -4.3609,-9.7403 -9.7403 -9.7403c -5.3794,-0.0000 -9.7403,4.3609 -9.7403 9.7403c -0.0000,5.3794 4.3609,9.7403 9.7403 9.7403c 5.3794,0.0000 9.7403,-4.3609 9.7403 -9.7403Z"/>
  </g>
  <defs>
  </defs>
  <g stroke-linejoin="miter" stroke-opacity="1.0" fill-opacity="0.0" stroke="rgb(0,0,0)" stroke-width="1.262650273941963" fill="rgb(0,0,0)" stroke-dashoffset="0.0" stroke-linecap="butt" stroke-miterlimit="10.0" stroke-dasharray="3.1566256848549075,3.1566256848549075">
    <path d="M 166.5584,94.4805 c 0.0000,5.3794 -4.3609,9.7403 -9.7403 9.7403c -5.3794,0.0000 -9.7403,-4.3609 -9.7403 -9.7403"/>
  </g>
  <defs>
  </defs>
  <g stroke-linejoin="miter" stroke-opacity="1.0" fill-opacity="0.0" stroke="rgb(255,0,0)" stroke-width="1.262650273941963" fill="rgb(0,0,0)" stroke-dashoffset="0.0" stroke-linecap="butt" stroke-miterlimit="10.0" stroke-dasharray="3.1566256848549075,3.1566256848549075">
    <path d="M 166.5584,94.4805 c 0.0000,-5.3794 -4.3609,-9.7403 -9.7403 -9.7403c -5.3794,-0.0000 -9.7403,4.3609 -9.7403 9.7403"/>
  </g>
  <defs>
  </defs>
  <g stroke-linejoin="miter" stroke-opacity="1.0" fill-opacity="1.0" font-size="9.74025974025974px" stroke="rgb(0,0,0)" stroke-width="1.262650273941963" fill="rgb(0,0,0)" stroke-linecap="butt" stroke-miterlimit="10.0">
    <text dominant-baseline="middle" transform="matrix(1.0000,0.0000,0.0000,1.0000,156.8182,94.4805)" stroke="none" text-anchor="middle">13
    </text>
  </g>
  <defs>
  </defs>
  <g stroke-linejoin="miter" stroke-opacity="1.0" fill-opacity="1.0" stroke="rgb(0,0,0)" stroke-width="0.0" fill="rgb(255,255,255)" stroke-linecap="butt" stroke-miterlimit="10.0">
    <path d="M 127.5974,94.4805 c 0.0000,-5.3794 -4.3609,-9.7403 -9.7403 -9.7403c -5.3794,-0.0000 -9.7403,4.3609 -9.7403 9.7403c -0.0000,5.3794 4.3609,9.7403 9.7403 9.7403c 5.3794,0.0000 9.7403,-4.3609 9.7403 -9.7403Z"/>
  </g>
  <defs>
  </defs>
  <g stroke-linejoin="miter" stroke-opacity="1.0" fill-opacity="0.0" stroke="rgb(0,0,0)" stroke-width="1.262650273941963" fill="rgb(0,0,0)" stroke-dashoffset="0.0" stroke-linecap="butt" stroke-miterlimit="10.0" stroke-dasharray="3.1566256848549075,3.1566256848549075">
    <path d="M 127.5974,94.4805 c 0.0000,5.3794 -4.3609,9.7403 -9.7403 9.7403c -5.3794,0.0000 -9.7403,-4.3609 -9.7403 -9.7403"/>
  </g>
  <defs>
  </defs>
  <g stroke-linejoin="miter" stroke-opacity="1.0" fill-opacity="0.0" stroke="rgb(255,0,0)" stroke-width="1.262650273941963" fill="rgb(0,0,0)" stroke-dashoffset="0.0" stroke-linecap="butt" stroke-miterlimit="10.0" stroke-dasharray="3.1566256848549075,3.1566256848549075">
    <path d="M 127.5974,94.4805 c 0.0000,-5.3794 -4.3609,-9.7403 -9.7403 -9.7403c -5.3794,-0.0000 -9.7403,4.3609 -9.7403 9.7403"/>
  </g>
  <defs>
  </defs>
  <g stroke-linejoin="miter" stroke-opacity="1.0" fill-opacity="1.0" font-size="9.74025974025974px" stroke="rgb(0,0,0)" stroke-width="1.262650273941963" fill="rgb(0,0,0)" stroke-linecap="butt" stroke-miterlimit="10.0">
    <text dominant-baseline="middle" transform="matrix(1.0000,0.0000,0.0000,1.0000,117.8571,94.4805)" stroke="none" text-anchor="middle">9
    </text>
  </g>
  <defs>
  </defs>
  <g stroke-linejoin="miter" stroke-opacity="1.0" fill-opacity="1.0" stroke="rgb(0,0,0)" stroke-width="2.3674692636411803" fill="rgb(255,255,255)" stroke-linecap="butt" stroke-miterlimit="10.0">
    <path d="M 147.0779,55.5195 c 0.0000,-5.3794 -4.3609,-9.7403 -9.7403 -9.7403c -5.3794,-0.0000 -9.7403,4.3609 -9.7403 9.7403c -0.0000,5.3794 4.3609,9.7403 9.7403 9.7403c 5.3794,0.0000 9.7403,-4.3609 9.7403 -9.7403Z"/>
  </g>
  <defs>
  </defs>
  <g stroke-linejoin="miter" stroke-opacity="1.0" fill-opacity="1.0" font-size="9.74025974025974px" stroke="rgb(0,0,0)" stroke-width="1.262650273941963" fill="rgb(0,0,0)" stroke-linecap="butt" stroke-miterlimit="10.0">
    <text dominant-baseline="middle" transform="matrix(1.0000,0.0000,0.0000,1.0000,137.3377,55.5195)" stroke="none" text-anchor="middle">11
    </text>
  </g>
  <defs>
  </defs>
  <g stroke-linejoin="miter" stroke-opacity="1.0" fill-opacity="0.0" stroke="rgb(0,0,0)" stroke-width="1.262650273941963" fill="rgb(0,0,0)" stroke-linecap="butt" stroke-miterlimit="10.0">
    <path d="M 59.4156,55.5195 l 19.4805,38.9610 "/>
  </g>
  <defs>
  </defs>
  <g stroke-linejoin="miter" stroke-opacity="1.0" fill-opacity="0.0" stroke="rgb(0,0,0)" stroke-width="1.262650273941963" fill="rgb(0,0,0)" stroke-linecap="butt" stroke-miterlimit="10.0">
    <path d="M 59.4156,55.5195 l -19.4805,38.9610 "/>
  </g>
  <defs>
  </defs>
  <g stroke-linejoin="miter" stroke-opacity="1.0" fill-opacity="1.0" stroke="rgb(0,0,0)" stroke-width="0.0" fill="rgb(255,255,255)" stroke-linecap="butt" stroke-miterlimit="10.0">
    <path d="M 88.6364,94.4805 c 0.0000,-5.3794 -4.3609,-9.7403 -9.7403 -9.7403c -5.3794,-0.0000 -9.7403,4.3609 -9.7403 9.7403c -0.0000,5.3794 4.3609,9.7403 9.7403 9.7403c 5.3794,0.0000 9.7403,-4.3609 9.7403 -9.7403Z"/>
  </g>
  <defs>
  </defs>
  <g stroke-linejoin="miter" stroke-opacity="1.0" fill-opacity="0.0" stroke="rgb(0,0,0)" stroke-width="1.262650273941963" fill="rgb(0,0,0)" stroke-dashoffset="0.0" stroke-linecap="butt" stroke-miterlimit="10.0" stroke-dasharray="3.1566256848549075,3.1566256848549075">
    <path d="M 88.6364,94.4805 c 0.0000,5.3794 -4.3609,9.7403 -9.7403 9.7403c -5.3794,0.0000 -9.7403,-4.3609 -9.7403 -9.7403"/>
  </g>
  <defs>
  </defs>
  <g stroke-linejoin="miter" stroke-opacity="1.0" fill-opacity="0.0" stroke="rgb(255,0,0)" stroke-width="1.262650273941963" fill="rgb(0,0,0)" stroke-dashoffset="0.0" stroke-linecap="butt" stroke-miterlimit="10.0" stroke-dasharray="3.1566256848549075,3.1566256848549075">
    <path d="M 88.6364,94.4805 c 0.0000,-5.3794 -4.3609,-9.7403 -9.7403 -9.7403c -5.3794,-0.0000 -9.7403,4.3609 -9.7403 9.7403"/>
  </g>
  <defs>
  </defs>
  <g stroke-linejoin="miter" stroke-opacity="1.0" fill-opacity="1.0" font-size="9.74025974025974px" stroke="rgb(0,0,0)" stroke-width="1.262650273941963" fill="rgb(0,0,0)" stroke-linecap="butt" stroke-miterlimit="10.0">
    <text dominant-baseline="middle" transform="matrix(1.0000,0.0000,0.0000,1.0000,78.8961,94.4805)" stroke="none" text-anchor="middle">5
    </text>
  </g>
  <defs>
  </defs>
  <g stroke-linejoin="miter" stroke-opacity="1.0" fill-opacity="1.0" stroke="rgb(255,0,0)" stroke-width="2.3674692636411803" fill="rgb(255,255,255)" stroke-linecap="butt" stroke-miterlimit="10.0">
    <path d="M 49.6753,94.4805 c 0.0000,-5.3794 -4.3609,-9.7403 -9.7403 -9.7403c -5.3794,-0.0000 -9.7403,4.3609 -9.7403 9.7403c -0.0000,5.3794 4.3609,9.7403 9.7403 9.7403c 5.3794,0.0000 9.7403,-4.3609 9.7403 -9.7403Z"/>
  </g>
  <defs>
  </defs>
  <g stroke-linejoin="miter" stroke-opacity="1.0" fill-opacity="1.0" font-size="9.74025974025974px" stroke="rgb(0,0,0)" stroke-width="1.262650273941963" fill="rgb(0,0,0)" stroke-linecap="butt" stroke-miterlimit="10.0">
    <text dominant-baseline="middle" transform="matrix(1.0000,0.0000,0.0000,1.0000,39.9351,94.4805)" stroke="none" text-anchor="middle">1
    </text>
  </g>
  <defs>
  </defs>
  <g stroke-linejoin="miter" stroke-opacity="1.0" fill-opacity="1.0" stroke="rgb(255,0,0)" stroke-width="2.3674692636411803" fill="rgb(255,255,255)" stroke-linecap="butt" stroke-miterlimit="10.0">
    <path d="M 69.1558,55.5195 c 0.0000,-5.3794 -4.3609,-9.7403 -9.7403 -9.7403c -5.3794,-0.0000 -9.7403,4.3609 -9.7403 9.7403c -0.0000,5.3794 4.3609,9.7403 9.7403 9.7403c 5.3794,0.0000 9.7403,-4.3609 9.7403 -9.7403Z"/>
  </g>
  <defs>
  </defs>
  <g stroke-linejoin="miter" stroke-opacity="1.0" fill-opacity="1.0" font-size="9.74025974025974px" stroke="rgb(0,0,0)" stroke-width="1.262650273941963" fill="rgb(0,0,0)" stroke-linecap="butt" stroke-miterlimit="10.0">
    <text dominant-baseline="middle" transform="matrix(1.0000,0.0000,0.0000,1.0000,59.4156,55.5195)" stroke="none" text-anchor="middle">3
    </text>
  </g>
  <defs>
  </defs>
  <g stroke-linejoin="miter" stroke-opacity="1.0" fill-opacity="1.0" stroke="rgb(0,0,0)" stroke-width="1.262650273941963" fill="rgb(0,0,0)" stroke-linecap="butt" stroke-miterlimit="10.0">
    <path d="M 108.1169,16.5584 c 0.0000,-5.3794 -4.3609,-9.7403 -9.7403 -9.7403c -5.3794,-0.0000 -9.7403,4.3609 -9.7403 9.7403c -0.0000,5.3794 4.3609,9.7403 9.7403 9.7403c 5.3794,0.0000 9.7403,-4.3609 9.7403 -9.7403Z"/>
  </g>
  <defs>
  </defs>
  <g stroke-linejoin="miter" stroke-opacity="1.0" fill-opacity="1.0" font-size="9.74025974025974px" stroke="rgb(0,0,0)" stroke-width="1.262650273941963" fill="rgb(255,255,255)" stroke-linecap="butt" stroke-miterlimit="10.0">
    <text dominant-baseline="middle" transform="matrix(1.0000,0.0000,0.0000,1.0000,98.3766,16.5584)" stroke="none" text-anchor="middle">7
    </text>
  </g>
</svg>